<?xml version="1.0" encoding="UTF-8"?>
<!DOCTYPE svg PUBLIC "-//W3C//DTD SVG 1.1//EN" "http://www.w3.org/Graphics/SVG/1.1/DTD/svg11.dtd">
<!-- Creator: CorelDRAW 2018 (64 Bit) -->
<svg xmlns="http://www.w3.org/2000/svg" xml:space="preserve" width="178.775mm" height="194.532mm" version="1.1" style="shape-rendering:geometricPrecision; text-rendering:geometricPrecision; image-rendering:optimizeQuality; fill-rule:evenodd; clip-rule:evenodd"
viewBox="0 0 4257.11 4632.32"
 xmlns:xlink="http://www.w3.org/1999/xlink">
 <defs>
  <style type="text/css">
   <![CDATA[
    .fil0 {fill:#FEFEFE;fill-rule:nonzero}
   ]]>
  </style>
 </defs>
 <g id="Camada_x0020_1">
  <metadata id="CorelCorpID_0Corel-Layer"/>
  <g id="_2611918952272">
   <path class="fil0" d="M2977.46 0l-1697.8 0 0 1253.24 0.14 0.7 0.01 0.55c6.3,286.26 112.99,470.96 251.56,597.53 138.82,126.79 309.92,195.54 444.29,249.53l0.01 0c52.97,21.28 99.92,40.15 134.48,58.6l18.41 9.83 18.41 -9.83c34.56,-18.45 81.51,-37.32 134.48,-58.6l0.01 -0c134.37,-53.99 305.47,-122.74 444.28,-249.53 138.58,-126.56 245.26,-311.26 251.56,-597.53l0.01 -0.55 0.14 -0.7 0 -1253.24zm-634.51 1899.6c12,22.9 22.41,47.21 31.19,73.54l1.42 4.27 -4.11 1.82c-20.55,9.11 -41.1,17.8 -61.25,26.12 -20.29,8.38 -39.47,16.09 -57.89,23.49l-0.03 0.01c-45.33,18.22 -86.39,34.71 -121.56,51.83l-2.17 1.06 -2.17 -1.06c-35.18,-17.11 -76.23,-33.61 -121.56,-51.83l-0.03 -0.01c-18.64,-7.49 -38.07,-15.3 -58.62,-23.79 -20.05,-8.28 -40.76,-17.06 -62.04,-26.51l-4.27 -1.9 1.64 -4.35c1.62,-4.31 3.23,-8.44 4.84,-12.39 1.59,-3.9 3.31,-7.97 5.17,-12.19l1.3 -2.98 403.7 0 -43.84 -67.17 -312.67 0 -11.21 0.06 5.02 -7.7c58.2,-89.39 139.6,-162.81 221.08,-236.31l0.05 -0.05c9.2,-8.27 17.35,-15.62 22.79,-20.56 6.89,-6.25 14.96,-13.61 25.1,-22.9 38,-34.89 75.2,-70.55 109.65,-108.74 34.39,-38.12 66.05,-78.75 93.03,-123.6 27.53,-45.77 49.89,-95.44 64.93,-150.61 15.05,-55.2 22.78,-115.95 21.07,-183.86 -1.6,-63.5 -13.01,-120.05 -31.98,-171.53 -18.97,-51.48 -45.51,-97.91 -77.36,-141.18 -30.76,-41.75 -66.15,-80.09 -104.24,-117.02 -38.19,-37.02 -79.1,-72.63 -120.76,-108.83 -42.11,-36.6 -80.18,-70.16 -113.94,-103.03 -33.88,-32.99 -63.45,-65.3 -88.44,-99.3 -20.51,-27.92 -38.14,-57.38 -52.86,-89.88 -14.72,-32.49 -26.5,-67.99 -35.29,-107.96l-1.32 -6.02 529.84 0 -1.4 6.06c-3.81,16.43 -8.39,32.28 -13.66,47.59 -5.25,15.27 -11.25,30.16 -17.91,44.72l-1.33 2.9 -394.34 0 43.84 67.17 301.2 0 11.43 -0.07 -6.2 9.98c-19.28,28.43 -40.86,55.24 -63.96,80.96 -22.38,24.92 -46.38,48.98 -71.19,72.6 8.44,7.38 19.24,16.78 30.03,26.17 12.77,11.11 25.54,22.22 38.48,33.61 54.08,-51.73 104.85,-106.1 146.13,-168.23 42.02,-63.24 74.27,-134.57 90.23,-219.42l0.76 -4.04 411.63 0 0 1170.23 0.24 0 -0.11 5.05c-4.41,192.92 -60.4,335.67 -141.86,444.05 -81.42,108.33 -188.18,182.21 -294.25,237.51l-5.04 2.63 -1.91 -5.35c-10.11,-28.37 -21.91,-54.77 -35.38,-79.81 -13.48,-25.05 -28.65,-48.73 -45.46,-71.61 -17.92,-24.4 -37.6,-47.68 -59.03,-70.64 -20.58,-22.05 -42.69,-43.71 -66.34,-65.7 -4.75,4.3 -9.36,8.53 -13.98,12.76 -9.6,8.79 -19.23,17.61 -28.77,25.98l0.08 0.08 -24.5 22.11c22.9,21.13 44.13,41.71 63.63,62.37 20.65,21.87 39.35,43.8 56.01,66.49 15.11,20.56 28.69,42 40.71,64.92zm-417.96 -167.89c-51.41,58.86 -95.58,123.66 -125.3,200.36l-2 5.15 -4.89 -2.56c-105.84,-55.35 -212.27,-129.25 -293.39,-237.5 -81.17,-108.3 -136.94,-250.85 -141.33,-443.34l-0.12 -5.05 0.24 0 0 -1170.23c138.3,-0.03 276.61,-0 414.91,-0l0.77 4.04c9.84,51.84 23.83,97.42 41.87,138.89 18.03,41.45 40.14,78.84 66.2,114.33 27.63,37.61 59.41,72.57 95.37,107.75 36.06,35.28 76.32,70.79 120.81,109.44 39.54,34.35 78.36,68.14 114.23,102.76 36,34.75 69.06,70.36 96.94,108.25 26.54,36.06 48.71,74.66 64.67,117.31 15.95,42.65 25.65,89.3 27.25,141.44l0.15 5.09 -543.85 0 0.5 -5.4c3.09,-33.7 9.08,-65.11 17.51,-94.57 8.44,-29.5 19.33,-57.14 32.21,-83.25l1.36 -2.77 379.77 0 -43.84 -67.17 -296.04 0 5.56 -7.81c18.05,-25.38 37.99,-49.54 59.2,-72.87 19.97,-21.97 41.12,-43.25 62.91,-64.15l-22.77 -19.82c-15.13,-13.16 -30.25,-26.32 -45.57,-39.89 -28.96,28.02 -56.92,56.91 -82.91,87.45 -26.96,31.69 -51.91,65.28 -73.82,101.72 -27.53,45.77 -49.89,95.44 -64.93,150.62 -15.04,55.2 -22.78,115.95 -21.07,183.86 1.59,63.49 12.99,120.05 31.96,171.53 18.96,51.49 45.51,97.92 77.38,141.18 19.4,26.34 40.58,51.28 63.09,75.31 21.48,22.94 44.32,45.22 68.05,67.22 12.66,-11.55 25.07,-22.74 37.49,-33.95 0.66,-0.66 1.54,-1.48 2.62,-2.46 0.94,-0.85 1.84,-1.62 2.69,-2.31l24.47 -22.1c-22.89,-21.08 -44.87,-42.3 -65.36,-63.94 -21.82,-23.03 -42.07,-46.64 -60.15,-71.2 -26.07,-35.41 -47.93,-73.24 -63.8,-114.9 -15.88,-41.69 -25.78,-87.21 -27.93,-137.99l-0.22 -5.12c181.07,-0.04 362.13,-0.03 543.2,-0.03l-0.56 5.44c-3.34,32.62 -9.43,63.12 -17.85,91.83 -8.43,28.75 -19.16,55.67 -31.79,81.1l-1.36 2.75 -373.91 0.03 43.9 67.19 289.96 0 -5.59 7.82c-22.49,31.45 -47.87,61.08 -74.99,89.6 -27.1,28.5 -55.89,55.86 -85.26,82.82l-0.02 0c-14.83,13.59 -30.83,28.02 -46.85,42.47l-0.32 0.29c-58.99,53.21 -117.95,106.39 -169.46,165.36z"/>
   <g>
    <path class="fil0" d="M716.58 2775.86c0,14.79 -5.06,27.07 -15.17,36.85 -10.12,9.77 -25.54,14.66 -46.28,14.66l-34.17 0 0 74.2 -23.2 0 0 -177.72 57.37 0c20.06,0 35.31,4.85 45.77,14.53 10.45,9.69 15.68,22.18 15.68,37.48zm-61.45 32.38c12.92,0 22.44,-2.81 28.56,-8.42 6.12,-5.61 9.18,-13.6 9.18,-23.97 0,-21.93 -12.58,-32.89 -37.74,-32.89l-34.17 0 0 65.28 34.17 0zm253.36 95.11c-16.49,0 -31.53,-3.86 -45.13,-11.6 -13.6,-7.74 -24.35,-18.53 -32.25,-32.38 -7.9,-13.85 -11.86,-29.45 -11.86,-46.79 0,-17.34 3.95,-32.94 11.86,-46.79 7.9,-13.85 18.66,-24.65 32.25,-32.38 13.6,-7.73 28.64,-11.6 45.13,-11.6 16.66,0 31.79,3.87 45.39,11.6 13.6,7.73 24.31,18.49 32.13,32.25 7.82,13.77 11.73,29.41 11.73,46.92 0,17.51 -3.91,33.15 -11.73,46.92 -7.82,13.77 -18.53,24.52 -32.13,32.26 -13.6,7.73 -28.73,11.6 -45.39,11.6zm0 -20.14c12.41,0 23.59,-2.89 33.53,-8.67 9.94,-5.78 17.76,-14.02 23.46,-24.73 5.7,-10.71 8.54,-23.12 8.54,-37.23 0,-14.28 -2.85,-26.73 -8.54,-37.35 -5.69,-10.63 -13.47,-18.83 -23.33,-24.61 -9.86,-5.78 -21.08,-8.67 -33.66,-8.67 -12.58,0 -23.8,2.89 -33.66,8.67 -9.86,5.78 -17.64,13.98 -23.33,24.61 -5.69,10.63 -8.54,23.08 -8.54,37.35 0,14.11 2.85,26.52 8.54,37.23 5.7,10.71 13.51,18.95 23.46,24.73 9.95,5.78 21.12,8.67 33.53,8.67zm25.5 -197.86l-54.31 29.07 0 -17.34 54.31 -31.87 0 20.14zm233.22 218.01c-11.73,0 -22.23,-2.08 -31.49,-6.25 -9.27,-4.16 -16.53,-9.94 -21.8,-17.34 -5.27,-7.39 -7.99,-15.94 -8.16,-25.62l24.73 0c0.85,8.33 4.29,15.34 10.33,21.03 6.04,5.7 14.83,8.54 26.39,8.54 11.05,0 19.76,-2.76 26.14,-8.29 6.37,-5.53 9.56,-12.62 9.56,-21.29 0,-6.8 -1.87,-12.33 -5.61,-16.57 -3.74,-4.25 -8.42,-7.48 -14.02,-9.69 -5.61,-2.21 -13.17,-4.59 -22.69,-7.14 -11.73,-3.06 -21.12,-6.12 -28.18,-9.18 -7.06,-3.06 -13.09,-7.86 -18.1,-14.41 -5.01,-6.55 -7.52,-15.34 -7.52,-26.39 0,-9.69 2.47,-18.27 7.4,-25.75 4.93,-7.48 11.86,-13.26 20.78,-17.34 8.92,-4.08 19.16,-6.12 30.73,-6.12 16.66,0 30.3,4.16 40.92,12.49 10.62,8.33 16.61,19.38 17.98,33.15l-25.5 0c-0.85,-6.8 -4.42,-12.79 -10.71,-17.98 -6.29,-5.18 -14.62,-7.78 -24.99,-7.78 -9.69,0 -17.6,2.51 -23.71,7.52 -6.12,5.01 -9.18,12.03 -9.18,21.04 0,6.46 1.83,11.73 5.48,15.81 3.66,4.08 8.16,7.18 13.51,9.31 5.36,2.12 12.88,4.55 22.57,7.27 11.73,3.23 21.16,6.42 28.3,9.56 7.14,3.15 13.26,7.99 18.36,14.54 5.1,6.54 7.65,15.43 7.65,26.64 0,8.67 -2.3,16.83 -6.88,24.48 -4.59,7.65 -11.39,13.85 -20.4,18.61 -9.01,4.76 -19.63,7.14 -31.87,7.14zm378.56 -128c-4.93,-10.37 -12.07,-18.4 -21.42,-24.1 -9.35,-5.7 -20.23,-8.54 -32.64,-8.54 -12.41,0 -23.59,2.85 -33.53,8.54 -9.94,5.69 -17.76,13.85 -23.46,24.48 -5.7,10.63 -8.54,22.91 -8.54,36.85 0,13.94 2.85,26.18 8.54,36.72 5.69,10.54 13.51,18.65 23.46,24.35 9.94,5.7 21.12,8.54 33.53,8.54 17.34,0 31.62,-5.18 42.84,-15.55 11.22,-10.37 17.76,-24.39 19.63,-42.07l-70.89 0 0 -18.87 95.62 0 0 17.85c-1.36,14.62 -5.95,28.01 -13.77,40.16 -7.82,12.15 -18.1,21.76 -30.85,28.81 -12.75,7.05 -26.94,10.58 -42.58,10.58 -16.49,0 -31.53,-3.87 -45.13,-11.6 -13.6,-7.73 -24.35,-18.49 -32.25,-32.25 -7.91,-13.77 -11.86,-29.32 -11.86,-46.66 0,-17.34 3.95,-32.94 11.86,-46.79 7.9,-13.85 18.65,-24.65 32.25,-32.38 13.6,-7.73 28.64,-11.6 45.13,-11.6 18.87,0 35.57,4.67 50.1,14.02 14.53,9.35 25.12,22.52 31.74,39.52l-27.79 0zm239.85 126.21l-42.33 -72.67 -28.05 0 0 72.67 -23.2 0 0 -177.72 57.37 0c13.43,0 24.78,2.3 34.04,6.88 9.27,4.59 16.19,10.79 20.78,18.61 4.59,7.82 6.88,16.74 6.88,26.77 0,12.24 -3.53,23.03 -10.58,32.38 -7.05,9.35 -17.64,15.55 -31.74,18.61l44.62 74.45 -27.79 0zm-70.37 -91.28l34.17 0c12.58,0 22.01,-3.1 28.3,-9.31 6.29,-6.21 9.43,-14.49 9.43,-24.86 0,-10.54 -3.1,-18.7 -9.31,-24.48 -6.2,-5.78 -15.68,-8.67 -28.43,-8.67l-34.17 0 0 67.31zm319.4 51.76l-77.51 0 -14.28 39.52 -24.48 0 64.25 -176.7 26.77 0 64 176.7 -24.48 0 -14.28 -39.52zm-6.63 -18.87l-32.13 -89.75 -32.13 89.75 64.25 0zm211.29 -119.33c19.38,0 36.16,3.61 50.36,10.84 14.19,7.22 25.07,17.55 32.64,30.98 7.57,13.43 11.35,29.24 11.35,47.43 0,18.19 -3.78,33.95 -11.35,47.3 -7.57,13.34 -18.44,23.54 -32.64,30.6 -14.19,7.06 -30.98,10.58 -50.36,10.58l-55.33 0 0 -177.72 55.33 0zm0 158.6c22.95,0 40.46,-6.08 52.52,-18.23 12.07,-12.15 18.1,-29.19 18.1,-51.12 0,-22.1 -6.08,-39.35 -18.23,-51.76 -12.15,-12.41 -29.62,-18.61 -52.4,-18.61l-32.13 0 0 139.73 32.13 0zm230.16 -158.6l0 112.45c0,15.81 3.87,27.54 11.6,35.19 7.74,7.65 18.49,11.47 32.26,11.47 13.6,0 24.27,-3.82 32,-11.47 7.73,-7.65 11.6,-19.38 11.6,-35.19l0 -112.45 23.2 0 0 112.19c0,14.79 -2.97,27.24 -8.92,37.35 -5.95,10.11 -13.98,17.64 -24.1,22.56 -10.12,4.93 -21.46,7.39 -34.04,7.39 -12.58,0 -23.92,-2.46 -34.04,-7.39 -10.11,-4.93 -18.1,-12.45 -23.97,-22.56 -5.87,-10.11 -8.8,-22.56 -8.8,-37.35l0 -112.19 23.2 0zm336.99 138.2l-77.51 0 -14.28 39.52 -24.48 0 64.25 -176.7 26.77 0 64 176.7 -24.48 0 -14.28 -39.52zm-6.63 -18.87l-32.13 -89.75 -32.13 89.75 64.25 0zm236.02 39.78c12.92,0 24.01,-2.85 33.28,-8.54 9.26,-5.69 16.36,-13.89 21.29,-24.61l27.79 0c-6.12,15.64 -15.59,28.05 -28.43,37.23 -12.83,9.18 -27.83,14.45 -45,15.81l0 13.52c10.03,-0.17 18.02,1.96 23.97,6.37 5.95,4.42 8.92,10.71 8.92,18.87 0,7.99 -2.89,14.36 -8.67,19.12 -5.78,4.76 -13.26,7.14 -22.44,7.14l-29.32 0 0 -15.04 24.73 0c5.61,0 9.73,-0.85 12.37,-2.55 2.64,-1.7 3.95,-4.59 3.95,-8.67 0,-3.91 -1.32,-6.72 -3.95,-8.41 -2.63,-1.7 -6.76,-2.55 -12.37,-2.55l-12.75 0 0 -27.79c-15.47,-1.02 -29.45,-5.48 -41.94,-13.39 -12.49,-7.91 -22.31,-18.53 -29.45,-31.87 -7.14,-13.34 -10.71,-28.34 -10.71,-45 0,-17.34 3.91,-32.94 11.73,-46.79 7.82,-13.85 18.49,-24.69 32,-32.51 13.51,-7.82 28.52,-11.73 45,-11.73 19.38,0 36.29,4.67 50.74,14.03 14.45,9.35 24.99,22.61 31.62,39.78l-27.79 0c-4.93,-10.71 -12.03,-18.95 -21.29,-24.73 -9.27,-5.78 -20.36,-8.67 -33.28,-8.67 -12.41,0 -23.54,2.89 -33.4,8.67 -9.86,5.78 -17.59,13.98 -23.2,24.61 -5.61,10.63 -8.42,23.08 -8.42,37.35 0,14.11 2.81,26.47 8.42,37.1 5.61,10.63 13.34,18.83 23.2,24.61 9.86,5.78 20.99,8.67 33.4,8.67zm304.36 -20.91l-77.51 0 -14.28 39.52 -24.48 0 64.25 -176.7 26.77 0 64 176.7 -24.48 0 -14.28 -39.52zm-6.63 -18.87l-32.13 -89.75 -32.13 89.75 64.26 0zm-69.61 -133.36c1.19,-8.67 4.04,-15.3 8.54,-19.89 4.51,-4.59 10.16,-6.88 16.95,-6.88 3.23,0 5.99,0.55 8.29,1.65 2.29,1.11 5.06,2.68 8.28,4.72 2.38,1.7 4.51,3.02 6.37,3.95 1.87,0.94 3.91,1.4 6.12,1.4 2.89,0 5.35,-0.94 7.39,-2.81 2.04,-1.87 3.31,-4.59 3.82,-8.16l13.26 0c-1.02,8.5 -3.82,15.04 -8.42,19.63 -4.59,4.59 -10.28,6.89 -17.08,6.89 -3.23,0 -6.08,-0.55 -8.54,-1.66 -2.46,-1.1 -5.23,-2.76 -8.29,-4.97 -2.72,-1.7 -4.89,-2.97 -6.5,-3.82 -1.61,-0.85 -3.53,-1.28 -5.74,-1.28 -2.89,0 -5.31,0.94 -7.27,2.81 -1.96,1.87 -3.19,4.67 -3.7,8.41l-13.51 0zm306.14 193.53c-16.49,0 -31.53,-3.86 -45.13,-11.6 -13.6,-7.74 -24.35,-18.53 -32.25,-32.38 -7.9,-13.85 -11.86,-29.45 -11.86,-46.79 0,-17.34 3.95,-32.94 11.86,-46.79 7.9,-13.85 18.66,-24.65 32.25,-32.38 13.6,-7.73 28.64,-11.6 45.13,-11.6 16.66,0 31.79,3.87 45.39,11.6 13.6,7.73 24.31,18.49 32.13,32.25 7.82,13.77 11.73,29.41 11.73,46.92 0,17.51 -3.91,33.15 -11.73,46.92 -7.82,13.77 -18.53,24.52 -32.13,32.26 -13.6,7.73 -28.73,11.6 -45.39,11.6zm0 -20.14c12.41,0 23.59,-2.89 33.53,-8.67 9.94,-5.78 17.76,-14.02 23.46,-24.73 5.69,-10.71 8.54,-23.12 8.54,-37.23 0,-14.28 -2.85,-26.73 -8.54,-37.35 -5.69,-10.63 -13.47,-18.83 -23.33,-24.61 -9.86,-5.78 -21.08,-8.67 -33.66,-8.67 -12.58,0 -23.8,2.89 -33.66,8.67 -9.86,5.78 -17.64,13.98 -23.33,24.61 -5.69,10.63 -8.54,23.08 -8.54,37.35 0,14.11 2.85,26.52 8.54,37.23 5.69,10.71 13.51,18.95 23.46,24.73 9.94,5.78 21.12,8.67 33.53,8.67z"/>
    <path class="fil0" d="M3859.37 3250.5c37.07,0 71.93,5.97 104.57,17.91 16.33,5.97 31.68,13.25 46.03,21.83 14.34,8.56 27.71,18.44 40.09,29.63 12.38,11.18 23.39,23.4 33.05,36.65 9.68,13.28 17.97,27.56 24.87,42.83 13.86,30.65 20.79,64.58 20.79,101.79 0,37.21 -6.93,71.14 -20.79,101.79 -6.9,15.27 -15.2,29.54 -24.87,42.83 -9.66,13.25 -20.67,25.47 -33.05,36.65 -12.38,11.18 -25.75,21.06 -40.09,29.63 -14.35,8.57 -29.7,15.85 -46.03,21.82 -16.33,5.97 -33.21,10.45 -50.63,13.44 -17.45,2.99 -35.44,4.48 -53.94,4.48 -37.09,0 -71.82,-5.97 -104.2,-17.91 -16.18,-5.97 -31.42,-13.24 -45.72,-21.82 -14.28,-8.57 -27.61,-18.45 -39.99,-29.63 -12.38,-11.18 -23.4,-23.4 -33.05,-36.65 -9.68,-13.28 -17.97,-27.56 -24.87,-42.83 -6.92,-15.31 -12.12,-31.47 -15.59,-48.48 -3.47,-17.01 -5.2,-34.78 -5.2,-53.31 0,-18.53 1.74,-36.3 5.2,-53.31 3.47,-17.01 8.67,-33.17 15.59,-48.48 6.9,-15.27 15.2,-29.55 24.87,-42.83 9.66,-13.25 20.67,-25.47 33.05,-36.65 12.38,-11.18 25.71,-21.06 39.99,-29.63 14.3,-8.58 29.54,-15.86 45.72,-21.83 16.19,-5.97 32.98,-10.45 50.36,-13.44 17.39,-2.98 35.34,-4.48 53.84,-4.48zm-3299.67 -67.29l166.13 0 0 17.7 -19.02 0c-5.89,0 -11.34,1.02 -16.34,3.06 -5.02,2.04 -9.65,5.12 -13.87,9.23 -4.23,4.11 -7.46,8.72 -9.68,13.79 -2.21,5.06 -3.45,10.63 -3.7,16.71l0.01 0 0 402.97c0,8.65 0.12,16.78 0.37,24.39 0.25,7.8 0.65,15.6 1.18,23.4 1.04,15.33 2.2,27.74 3.48,37.23l2.71 20.07 -14.8 0 -420.06 -447.53 0.56 371.15 0.11 0 0 4.94c0,11.68 4.21,21.73 12.64,30.16 8.42,8.42 18.48,12.63 30.15,12.63l19.81 0 0 17.7 -171.07 0 0 -17.7 19.8 0c11.68,0 21.73,-4.21 30.15,-12.63 8.42,-8.42 12.64,-18.48 12.64,-30.16l0 -406.1c0,-13.39 -0.29,-25.7 -0.86,-36.91 -0.58,-11.29 -1.45,-21.74 -2.62,-31.37l-4.19 -34.47 15.52 0 419.38 447.53 0 -375.3 0.01 0c-0.25,-6.09 -1.46,-11.68 -3.62,-16.75 -2.15,-5.07 -5.3,-9.67 -9.42,-13.79l0 -0.02c-4.08,-4.08 -8.65,-7.14 -13.7,-9.17 -5.06,-2.04 -10.68,-3.06 -16.85,-3.06l-19.8 0 0 -17.7 4.94 0zm721.68 83.18l0 12.76 -16.68 0c-8.68,0 -16.19,2.84 -22.54,8.51 -6.21,5.55 -9.57,12.28 -10.08,20.2l0 262.91c0,55.7 -17.89,99.82 -53.66,132.36 -17.85,16.23 -39.01,28.41 -63.49,36.53 -24.34,8.07 -51.89,12.1 -82.63,12.1 -30.5,0 -57.91,-4 -82.21,-11.99 -24.46,-8.04 -45.75,-20.11 -63.87,-36.21 -18.16,-16.14 -31.79,-35.27 -40.89,-57.37 -9.06,-22.01 -13.59,-46.89 -13.59,-74.64l0 -263.69c-0.5,-7.95 -3.75,-14.71 -9.74,-20.26 -6.08,-5.63 -13.71,-8.45 -22.87,-8.45l-16.68 0 0 -17.7 158.55 0 0 17.7 -16.68 0c-8.7,0 -16.37,2.86 -22.99,8.57 -3.26,2.81 -5.68,5.89 -7.27,9.24 -1.57,3.3 -2.36,6.94 -2.36,10.9l0 254.3c0,24.81 3.15,46.94 9.43,66.37 6.24,19.3 15.59,36 28.05,50.08 12.41,14.04 27.09,24.56 44.06,31.57 17.05,7.05 36.48,10.57 58.28,10.57 48.23,0 86.08,-13.35 113.55,-40.06 13.69,-13.31 23.96,-29.08 30.81,-47.31 6.89,-18.32 10.33,-39.2 10.33,-62.62l0 -262.91c0,-4 -0.76,-7.66 -2.28,-10.96 -1.54,-3.36 -3.88,-6.44 -7.02,-9.24 -3.16,-2.82 -6.68,-4.95 -10.55,-6.37 -3.87,-1.42 -8.13,-2.14 -12.78,-2.14l-16.68 0 0 -17.7 144.46 0 0 4.94zm35.73 -17.97c2.08,0.69 4.94,1.5 8.57,2.43 3.57,0.91 7.72,1.87 12.44,2.9 4.9,1.06 9.93,2 15.07,2.8 5.22,0.81 10.85,1.55 16.88,2.21 5.82,0.63 11.46,1.11 16.91,1.43 5.53,0.33 10.78,0.5 15.73,0.5l0 -0.02 255.28 0 0 0.02c4.95,-0.01 10.16,-0.18 15.63,-0.5 5.35,-0.32 10.89,-0.8 16.6,-1.43 5.95,-0.66 11.52,-1.4 16.71,-2.21 5.23,-0.82 10.34,-1.75 15.3,-2.8 4.79,-1.01 9.03,-1.97 12.72,-2.9 3.65,-0.91 6.53,-1.72 8.65,-2.43l6.48 -2.16 -0 100.19 -18.48 0 0 -17.46c0,-4.88 -0.77,-9.35 -2.31,-13.41l0 -0.02c-1.53,-4.02 -3.84,-7.68 -6.92,-11 -3.04,-3.27 -6.62,-5.78 -10.74,-7.53 -4.16,-1.77 -8.9,-2.78 -14.21,-3.03l-136.69 0.01 0 391.77c0.5,10.04 4.68,18.76 12.52,26.14 3.96,3.73 8.33,6.53 13.09,8.39 4.75,1.86 9.96,2.78 15.61,2.78l13.55 0 0 17.7 -171.07 0 0 -17.7 14.33 0c5.66,0 10.86,-0.93 15.62,-2.78 4.76,-1.86 9.12,-4.65 13.09,-8.39 7.84,-7.38 12.02,-16.1 12.53,-26.14l-0.01 -391.77 -136.69 0c-5.31,0.24 -10.05,1.25 -14.21,3.02 -4.12,1.75 -7.7,4.26 -10.75,7.53 -3.07,3.3 -5.38,6.98 -6.92,11.02 -1.54,4.05 -2.31,8.52 -2.31,13.41l0 17.46 -18.49 0 0 -100.18 6.48 2.16zm591.81 437.37c0.25,5.03 1.34,9.71 3.28,14.03 1.96,4.37 4.82,8.45 8.58,12.21 3.71,3.71 7.85,6.48 12.43,8.31 4.6,1.84 9.73,2.76 15.38,2.76l14.62 0 1.77 17.7 -170.78 0 0 -17.7 15.89 0c5.65,0 10.78,-0.92 15.38,-2.76 4.57,-1.83 8.72,-4.6 12.43,-8.31 3.03,-3.03 5.47,-6.24 7.31,-9.63 1.75,-3.23 3.01,-6.68 3.76,-10.36l0 -382.91c-0.75,-3.73 -2,-7.21 -3.76,-10.41 -1.84,-3.35 -4.24,-6.41 -7.2,-9.18 -7.38,-6.92 -16.69,-10.39 -27.92,-10.39l-15.89 0 0 -17.7 201.34 0c12.38,0 24.24,0.74 35.55,2.21 11.29,1.47 21.95,3.67 31.95,6.61 10.02,2.94 19.36,6.57 28,10.89 8.65,4.32 16.56,9.33 23.74,15.02l0.02 0c14.42,11.43 25.45,25.32 33.08,41.68 3.81,8.18 6.68,16.9 8.58,26.14 1.9,9.25 2.86,18.97 2.86,29.15 0,22.74 -5.43,43.88 -16.29,63.42 -5.42,9.76 -11.88,18.63 -19.4,26.61 -7.5,7.97 -16.05,15.07 -25.65,21.29 -9.59,6.22 -19.83,11.22 -30.7,14.99 -6.59,2.29 -13.4,4.14 -20.44,5.53 0.95,0.69 1.92,1.42 2.89,2.18 5.33,4.18 11.02,9.5 17.07,15.95 6,6.4 11.53,12.68 16.56,18.84 5.1,6.22 9.77,12.39 14.02,18.5l10.08 13.58c3.42,4.61 7.28,9.67 11.56,15.16 4.19,5.38 9.04,11.49 14.54,18.33 5.24,6.52 10.53,12.98 15.88,19.38 5.36,6.42 10.57,12.53 15.62,18.34 5.52,6.04 10.74,11.62 15.65,16.72 4.99,5.18 9.74,9.97 14.26,14.36 4.39,4.26 8.95,8.05 13.66,11.33 4.68,3.26 9.58,6.08 14.7,8.46 4.97,2.31 10.38,4.04 16.21,5.21 5.87,1.17 12.17,1.76 18.89,1.76l4.94 0 0 17.7 -29.19 0c-14.51,0 -27.83,-0.94 -39.97,-2.82 -12.19,-1.89 -23.07,-4.71 -32.63,-8.48 -9.5,-3.75 -18.12,-7.94 -25.87,-12.59 -7.81,-4.68 -14.7,-9.82 -20.68,-15.39 -5.79,-5.4 -11.2,-10.71 -16.23,-15.94 -4.96,-5.16 -9.6,-10.29 -13.91,-15.41l-0.08 -0.1c-2.15,-2.68 -7.03,-9.41 -14.65,-20.18l-24.65 -34.82 -12.71 -17.88c-4.53,-6.35 -8.39,-11.75 -11.52,-16.12l-8.8 -12.23c-2.16,-2.99 -3.63,-5.01 -4.4,-6.03 -5.09,-6.62 -10.57,-12.89 -16.42,-18.8 -5.83,-5.89 -12.08,-11.47 -18.73,-16.71 -6.4,-5.05 -12.94,-8.81 -19.6,-11.3 -6.58,-2.45 -13.38,-3.68 -20.39,-3.68l-4.94 0 0 -17.84 17.61 0.55c4.14,0.13 8.83,0.16 14.08,0.1 5.21,-0.06 11.1,-0.23 17.65,-0.49l0.02 0c14.36,-0.51 28.83,-1.68 43.39,-3.5 6.89,-0.86 13.54,-2.61 19.95,-5.23 6.46,-2.65 12.74,-6.2 18.81,-10.67 5.89,-4.33 11.19,-10.16 15.88,-17.47 4.81,-7.5 8.98,-16.52 12.49,-27.05l0.04 -0.14c0.97,-2.66 1.82,-5.6 2.56,-8.81 0.76,-3.28 1.39,-6.78 1.88,-10.49 0.5,-3.76 0.81,-7.58 0.94,-11.45 0.12,-3.85 0.06,-7.81 -0.2,-11.88l0 -0.12c-0.25,-7.01 -1.03,-13.64 -2.35,-19.9 -1.29,-6.16 -3.12,-11.98 -5.48,-17.44 -2.35,-5.44 -5.18,-10.49 -8.48,-15.14 -3.34,-4.7 -7.15,-9 -11.43,-12.92 -4.28,-3.91 -9.01,-7.43 -14.19,-10.55 -5.19,-3.13 -10.75,-5.81 -16.68,-8.03 -5.98,-2.24 -12.36,-3.99 -19.12,-5.24 -6.81,-1.26 -14,-2.02 -21.57,-2.27l-0.04 0c-12.29,-0.52 -23.73,-0.85 -34.29,-0.98 -10.6,-0.13 -20.45,-0.06 -29.54,0.2 -6.9,0.2 -12.56,0.32 -16.97,0.37l-4.05 0.02 -0 389.84zm440.05 -369.33c-0.25,-5.18 -1.52,-9.92 -3.81,-14.21 -2.35,-4.41 -5.8,-8.43 -10.37,-12.05 -4.62,-3.67 -9.75,-6.43 -15.38,-8.27 -5.68,-1.85 -11.92,-2.78 -18.72,-2.78l-15.89 0 0 -17.7 188 0 -1.77 17.7 -14.62 0c-13.47,0 -24.84,3.68 -34.1,11.05 -4.56,3.63 -8.02,7.65 -10.37,12.05 -2.29,4.3 -3.56,9.04 -3.81,14.21l0.01 369.33c0.5,9.92 5.25,18.56 14.23,25.93 4.61,3.79 9.73,6.63 15.36,8.52 5.66,1.91 11.89,2.86 18.69,2.86l14.62 0 1.77 17.7 -188 0 0 -17.7 15.89 0c6.79,0 13.03,-0.95 18.68,-2.86 5.62,-1.9 10.75,-4.74 15.36,-8.52 4.57,-3.76 8.05,-7.83 10.42,-12.23 2.29,-4.24 3.56,-8.81 3.81,-13.7l-0 -369.33zm460.8 434.98l-19.72 23.57c3.15,-0.49 6.48,-0.83 9.98,-1.03 4.85,-0.28 9.65,-0.1 14.4,0.53 4.73,0.63 9.4,1.71 14.01,3.24 4.79,1.6 9.2,3.79 13.2,6.58 4,2.78 7.65,6.19 10.96,10.22 3.42,4.16 6.03,9.15 7.85,14.96 1.75,5.61 2.77,12.04 3.05,19.29l0 0.02c0.28,8.78 -1.04,16.81 -3.97,24.09 -2.95,7.33 -7.5,13.86 -13.64,19.58 -5.97,5.55 -12.7,10.14 -20.19,13.74 -7.43,3.58 -15.61,6.19 -24.53,7.84 -8.88,1.64 -17.85,2.19 -26.9,1.64 -9.04,-0.54 -18.18,-2.17 -27.41,-4.89l-3.91 -1.15 1.63 -16.34 4.45 0c5.29,0 10.54,-0.37 15.74,-1.11 5.23,-0.75 10.49,-1.88 15.77,-3.39 10.13,-2.89 18.54,-7.69 25.25,-14.39 6.28,-6.28 9.2,-14.96 8.75,-26.01 -0.23,-4.81 -1.15,-8.92 -2.77,-12.31 -1.51,-3.19 -3.68,-5.77 -6.5,-7.76 -3.1,-2.18 -6.52,-3.85 -10.25,-5 -3.82,-1.17 -7.97,-1.82 -12.46,-1.94 -4.6,-0.12 -9.13,0.27 -13.59,1.17 -4.48,0.91 -8.9,2.33 -13.26,4.27l-4.28 1.91 -7.39 -14.78 32.65 -42.85c-21.31,-1.16 -41.42,-3.97 -60.32,-8.43 -21.81,-5.15 -42.05,-12.49 -60.73,-22.01 -19.84,-10.12 -37.4,-22.39 -52.69,-36.8 -15.3,-14.43 -28.29,-30.99 -38.95,-49.65 -10.65,-18.63 -18.64,-39.09 -23.97,-61.37 -5.32,-22.21 -7.98,-46.13 -7.98,-71.76 0,-25.94 2.65,-50.06 7.96,-72.34 5.32,-22.36 13.33,-42.89 24,-61.56 10.67,-18.67 23.65,-35.22 38.95,-49.65 15.29,-14.42 32.85,-26.68 52.69,-36.8 39.57,-20.18 86.09,-30.28 139.56,-30.28 16.28,0 32.72,1.06 49.33,3.19 16.59,2.12 33.16,5.29 49.7,9.49 16.6,4.21 32.14,9.31 46.63,15.29 14.49,5.98 27.84,12.83 40.07,20.54l1.89 1.19c6.17,39.41 12.3,78.83 18.45,118.24l-16.66 0 -0.91 -3.8c-5.6,-23.41 -14.01,-43.48 -25.22,-60.22 -11.13,-16.6 -25.06,-29.93 -41.76,-39.98 -16.92,-10.18 -35.55,-17.82 -55.89,-22.92 -20.39,-5.11 -42.52,-7.67 -66.39,-7.67 -20.22,0 -39.02,2.2 -56.41,6.59 -17.34,4.38 -33.3,10.94 -47.87,19.69 -14.56,8.74 -27.49,19.33 -38.79,31.76 -11.3,12.45 -20.96,26.74 -28.96,42.88 -8.03,16.19 -14.06,33.96 -18.08,53.3 -4.03,19.38 -6.05,40.41 -6.05,63.06 0,22.13 2.02,42.76 6.05,61.89 4.02,19.07 10.05,36.71 18.08,52.91 8,16.13 17.69,30.43 29.06,42.87 11.34,12.42 24.36,23 39.06,31.74 14.75,8.77 30.82,15.41 48.22,19.92 17.47,4.53 36.3,6.92 56.47,7.18l0 -0.02c19.34,0 37.67,-1.57 54.98,-4.7 17.29,-3.12 33.69,-7.83 49.19,-14.11 30.7,-12.43 55.68,-31.83 74.95,-58.2 9.6,-13.14 17.12,-28.19 22.57,-45.15 5.47,-17.07 8.86,-36.1 10.13,-57.08l0.28 -4.65 17.02 0 -9.13 113.76 -0.69 1.06c-6.97,10.72 -15,20.69 -24.09,29.92 -9.08,9.22 -19.23,17.7 -30.45,25.44 -11.17,7.71 -23.08,14.53 -35.73,20.46 -12.62,5.91 -25.97,10.93 -40.03,15.04 -12.17,3.56 -24.66,6.35 -37.46,8.37 -12.08,1.91 -24.41,3.12 -36.99,3.65zm418.15 -532.54l-13.55 0 0.85 -5.65c0.8,-5.38 1.82,-10.46 3.03,-15.25 1.21,-4.79 2.65,-9.32 4.3,-13.59 1.64,-4.24 3.42,-8.17 5.32,-11.77 1.95,-3.69 4.03,-7.05 6.24,-10.09 2.27,-3.13 4.75,-5.92 7.4,-8.36 2.7,-2.48 5.57,-4.59 8.62,-6.33 3.1,-1.77 6.33,-3.11 9.7,-4 3.37,-0.9 6.82,-1.35 10.35,-1.35 6.36,0 12.64,0.73 18.82,2.19 6.18,1.46 12.23,3.64 18.16,6.53 5.66,2.76 11.16,5.57 16.49,8.39 5.2,2.76 10.37,5.63 15.51,8.61 4.65,2.69 9.13,4.7 13.43,6.01 4.19,1.28 8.28,1.92 12.27,1.92 3.46,0 6.66,-0.21 9.58,-0.63 2.95,-0.42 5.63,-1.04 8.05,-1.84 2.33,-0.77 4.55,-1.82 6.67,-3.14 2.07,-1.29 4.03,-2.85 5.86,-4.69 1.86,-1.85 3.46,-3.85 4.8,-5.98 1.37,-2.18 2.53,-4.54 3.45,-7.07l1.19 -3.26 16.78 0 -0.61 5.48c-1.09,9.79 -3.13,18.79 -6.14,26.98 -1.53,4.16 -3.27,7.98 -5.22,11.47 -1.97,3.53 -4.18,6.72 -6.6,9.58 -2.43,2.86 -5.04,5.4 -7.83,7.62 -2.78,2.21 -5.78,4.12 -8.99,5.72 -3.25,1.62 -6.62,2.84 -10.1,3.63 -3.52,0.81 -7.15,1.21 -10.88,1.21 -5.88,0 -11.83,-0.77 -17.84,-2.31 -5.9,-1.51 -11.9,-3.79 -18,-6.84 -6.02,-3.01 -11.63,-5.89 -16.82,-8.64 -5.18,-2.75 -10.47,-5.64 -15.86,-8.68 -4.72,-2.67 -9.32,-4.67 -13.77,-6.01 -4.29,-1.29 -8.42,-1.94 -12.38,-1.94 -2.81,0 -5.52,0.26 -8.13,0.78 -2.63,0.53 -5.15,1.3 -7.55,2.33 -2.39,1.02 -4.59,2.29 -6.61,3.81 -2.04,1.53 -3.92,3.32 -5.63,5.37 -1.78,2.14 -3.49,4.59 -5.11,7.37 -1.64,2.79 -3.2,5.93 -4.7,9.42l-1.29 3.01 -3.24 0zm89 34.51l190.15 420.4 0.27 0 1.3 2.95c3.76,8.52 7.93,15.79 12.51,21.78 4.5,5.9 9.38,10.58 14.63,14.04 5.4,3.56 10.64,6.21 15.72,7.97 4.91,1.7 9.73,2.55 14.44,2.55l11.2 0 0 17.7 -170.28 0 0 -17.7 11.2 0c3.62,0 7.08,-0.88 10.4,-2.65l0.01 0.01c3.47,-1.85 6.84,-4.69 10.09,-8.52 2.63,-3.1 4.21,-6.79 4.75,-11.07 0.57,-4.55 0.01,-9.76 -1.69,-15.65l-42.38 -103.26 -191.14 0 -43.64 103.28c-1.69,5.88 -2.25,11.1 -1.68,15.64 0.54,4.28 2.12,7.97 4.75,11.06 3.23,3.81 6.64,6.64 10.23,8.49 3.45,1.78 7.13,2.67 11.04,2.67l11.2 0 0 17.7 -159.33 0 0 -17.7 11.2 0c4.97,0 9.99,-0.85 15.06,-2.56 5.21,-1.76 10.51,-4.41 15.88,-7.95 4.51,-2.97 8.79,-6.85 12.85,-11.63 4.13,-4.86 8,-10.63 11.6,-17.32l163.13 -349.66 4.3 -9.39c1.21,-2.64 2.77,-6.12 4.66,-10.41 1.84,-4.17 3.66,-8.36 5.46,-12.56 1.91,-4.46 3.76,-8.96 5.52,-13.46 1.74,-4.45 3.39,-8.87 4.93,-13.25 1.54,-4.35 2.74,-8.2 3.6,-11.53 0.85,-3.27 1.39,-6.09 1.63,-8.44l0.45 -4.46 14.67 0 1.32 2.91zm68.63 295.21l-80.49 -196.14 -82.87 196.14 163.36 0zm473.82 169.8c37.71,0 71.82,-9.15 102.33,-27.46 15.25,-9.15 28.93,-20.09 41.01,-32.82 12.1,-12.74 22.61,-27.26 31.53,-43.56 8.9,-16.28 15.59,-33.87 20.06,-52.75 4.47,-18.92 6.71,-39.15 6.71,-60.7 0,-21.81 -2.24,-42.2 -6.71,-61.19 -4.46,-18.92 -11.15,-36.47 -20.06,-52.64 -8.92,-16.19 -19.44,-30.62 -31.53,-43.28 -12.08,-12.65 -25.76,-23.56 -41.01,-32.72 -15.24,-9.14 -31.39,-16.01 -48.43,-20.59 -17.04,-4.58 -35.01,-6.87 -53.89,-6.87 -37.19,0 -71.04,9.15 -101.54,27.45 -15.26,9.16 -28.93,20.06 -41.01,32.72 -12.09,12.67 -22.6,27.09 -31.53,43.28 -8.91,16.17 -15.59,33.71 -20.06,52.64 -4.47,18.98 -6.71,39.38 -6.71,61.18 0,43 8.92,80.82 26.77,113.45 8.91,16.3 19.42,30.82 31.53,43.56 12.09,12.72 25.76,23.66 41.01,32.82 15.24,9.14 31.32,16.01 48.24,20.59 16.92,4.58 34.69,6.87 53.3,6.87z"/>
    <path class="fil0" d="M507.68 4412.7l0.21 0.47c3.74,8.47 8.07,15.69 12.98,21.65 4.83,5.86 10.26,10.53 16.28,14.02 6.16,3.57 12.21,6.26 18.13,8.05 5.79,1.75 11.44,2.62 16.96,2.62l11.2 0 0 17.7 -185.93 0 0 -17.7 11.98 0c4.22,0 8.2,-0.91 11.94,-2.73 3.85,-1.87 7.53,-4.73 11.02,-8.56 2.86,-3.15 4.6,-6.89 5.22,-11.22 0.66,-4.59 0.1,-9.9 -1.67,-15.91l-50.5 -134.02 -204.27 0 -52.43 133.9c-1.04,3.8 -1.58,7.3 -1.61,10.5 -0.03,3.12 0.42,6 1.36,8.63 1.14,3.18 2.62,5.97 4.45,8.35 1.81,2.36 3.97,4.36 6.49,6 2.64,1.72 5.28,3.01 7.9,3.84 2.54,0.81 5.15,1.22 7.81,1.22l11.98 0 0 17.7 -167.15 0 0 -17.7 11.98 0c5.55,0 11.18,-0.87 16.86,-2.61 5.78,-1.76 11.72,-4.45 17.8,-8.05 5.28,-3.13 10.18,-7.22 14.68,-12.28 4.56,-5.13 8.72,-11.23 12.45,-18.3l179.37 -426 0.02 -0.08 4.3 -9.78c2.89,-6.56 6.27,-14.48 10.13,-23.77 2,-4.81 3.81,-9.38 5.42,-13.72 1.65,-4.43 3.19,-8.86 4.62,-13.29 1.36,-4.2 2.39,-7.9 3.09,-11.1 0.64,-2.91 0.96,-5.23 0.96,-6.96l0 -4.94 15.26 0 210.73 504.05zm-134.76 -158.98l-87.61 -232.49 -91.04 232.49 178.65 0zm187.77 -188.87l-0.27 0 -1.3 -2.95c-3.76,-8.52 -7.93,-15.79 -12.51,-21.79 -4.5,-5.9 -9.38,-10.58 -14.63,-14.04 -5.4,-3.56 -10.64,-6.21 -15.73,-7.97 -4.91,-1.7 -9.73,-2.55 -14.44,-2.55l-11.2 0 0 -17.7 170.28 0 0 17.7 -11.2 0c-3.61,0 -7.04,0.88 -10.28,2.63 -3.39,1.83 -6.65,4.66 -9.77,8.47 -2.63,3.21 -4.21,7.06 -4.74,11.54 -0.56,4.75 0.01,10.22 1.72,16.42l136.08 331.57 140.6 -332.77c1.69,-5.88 2.25,-11.09 1.68,-15.63 -0.54,-4.28 -2.12,-7.97 -4.75,-11.06 -3.23,-3.81 -6.64,-6.64 -10.23,-8.49 -3.45,-1.78 -7.13,-2.67 -11.04,-2.67l-10.42 0 0 -17.7 158.55 0 0 17.7 -11.2 0c-4.97,0 -9.99,0.85 -15.06,2.57 -5.21,1.76 -10.51,4.41 -15.88,7.95 -4.51,2.97 -8.79,6.85 -12.85,11.62 -4.13,4.86 -7.99,10.63 -11.6,17.32l-163.13 349.66 -4.3 9.39c-1.22,2.65 -2.77,6.12 -4.66,10.41 -1.84,4.17 -3.65,8.35 -5.46,12.56 -1.91,4.46 -3.75,8.95 -5.51,13.45 -1.74,4.46 -3.39,8.87 -4.94,13.26 -1.53,4.35 -2.74,8.2 -3.6,11.53 -0.85,3.27 -1.39,6.09 -1.63,8.44l-0.45 4.46 -14.67 0 -191.47 -423.31zm848.59 345.36l0.27 0 1.3 2.95c3.76,8.52 7.93,15.79 12.51,21.79 4.5,5.9 9.38,10.58 14.63,14.04 5.39,3.56 10.64,6.22 15.72,7.97 4.91,1.7 9.73,2.55 14.44,2.55l11.2 0 0 17.7 -170.29 0 0 -17.7 11.2 0c3.62,0 7.09,-0.89 10.4,-2.65l0.01 0.01c3.47,-1.85 6.84,-4.69 10.08,-8.52 2.63,-3.1 4.21,-6.79 4.75,-11.07 0.57,-4.55 0.01,-9.76 -1.69,-15.65l-42.38 -103.27 -191.14 0 -43.64 103.28c-1.69,5.88 -2.25,11.1 -1.68,15.64 0.54,4.28 2.12,7.97 4.75,11.06 3.23,3.81 6.64,6.64 10.23,8.49 3.45,1.78 7.13,2.67 11.05,2.67l11.2 0 0 17.7 -159.33 0 0 -17.7 11.2 0c4.97,0 9.99,-0.86 15.06,-2.57 5.21,-1.76 10.51,-4.41 15.88,-7.95 4.51,-2.97 8.79,-6.85 12.85,-11.63 4.13,-4.86 8,-10.63 11.6,-17.32l163.13 -349.66 4.3 -9.39c1.21,-2.64 2.77,-6.12 4.66,-10.41 1.84,-4.17 3.66,-8.36 5.46,-12.56 1.91,-4.46 3.76,-8.96 5.52,-13.46 1.74,-4.45 3.39,-8.87 4.93,-13.24 1.54,-4.35 2.74,-8.2 3.6,-11.53 0.85,-3.27 1.39,-6.09 1.63,-8.44l0.45 -4.46 14.67 0 191.47 423.31zm-121.52 -125.19l-80.49 -196.14 -82.87 196.14 163.36 0zm669.2 -233.71c-0.25,-5.01 -1.34,-9.62 -3.26,-13.8 -1.94,-4.22 -4.77,-8.08 -8.48,-11.56 -3.71,-3.48 -7.81,-6.08 -12.27,-7.8 -4.48,-1.72 -9.44,-2.59 -14.87,-2.59l-18.24 0 0 -17.7 157.76 0 0 17.7 -18.24 0c-10.21,0 -19.15,3.48 -26.81,10.44 -3.8,3.46 -6.64,7.28 -8.51,11.47 -1.85,4.16 -2.78,8.77 -2.78,13.84l0 331.77c0,8.65 0.13,16.78 0.37,24.4 0.25,7.79 0.65,15.6 1.17,23.4 1.04,15.33 2.2,27.74 3.48,37.23l2.71 20.07 -14.63 0 -400.66 -379.69 0.56 310.35 0.11 0 0 4.94c0,5.06 0.93,9.68 2.78,13.84 1.86,4.19 4.7,8.01 8.51,11.47 3.86,3.51 8.01,6.13 12.44,7.86 4.43,1.72 9.22,2.59 14.37,2.59l18.24 0 -0 17.7 -157.76 0 0 -17.7 18.24 0c5.43,0 10.39,-0.86 14.87,-2.59 4.46,-1.71 8.55,-4.32 12.27,-7.8 3.69,-3.46 6.44,-7.28 8.25,-11.47 1.8,-4.17 2.71,-8.8 2.71,-13.9l0 -334.9c0,-13.39 -0.29,-25.7 -0.86,-36.92 -0.58,-11.29 -1.45,-21.74 -2.62,-31.36l-4.19 -34.47 15.34 0 400 376.89 0 -311.71zm431.07 436.54l-19.72 23.57c3.15,-0.49 6.48,-0.83 9.98,-1.03 4.85,-0.28 9.65,-0.1 14.4,0.53 4.73,0.63 9.4,1.71 14.01,3.25 4.79,1.6 9.2,3.79 13.2,6.58 4,2.78 7.65,6.19 10.96,10.22 3.42,4.16 6.03,9.15 7.85,14.96 1.75,5.61 2.77,12.04 3.05,19.29l0 0.02c0.28,8.78 -1.04,16.81 -3.97,24.09 -2.95,7.33 -7.5,13.86 -13.64,19.58 -5.97,5.55 -12.7,10.14 -20.19,13.74 -7.43,3.58 -15.61,6.19 -24.53,7.84 -8.88,1.64 -17.85,2.19 -26.9,1.64 -9.04,-0.54 -18.18,-2.17 -27.41,-4.89l-3.91 -1.15 1.63 -16.34 4.45 0c5.29,0 10.54,-0.37 15.74,-1.11 5.23,-0.75 10.49,-1.88 15.77,-3.39 10.13,-2.89 18.54,-7.69 25.25,-14.39 6.28,-6.28 9.2,-14.96 8.75,-26.01 -0.23,-4.81 -1.15,-8.92 -2.77,-12.31 -1.51,-3.19 -3.68,-5.77 -6.5,-7.76 -3.1,-2.18 -6.52,-3.85 -10.25,-5 -3.82,-1.17 -7.97,-1.82 -12.46,-1.94 -4.6,-0.12 -9.13,0.27 -13.59,1.18 -4.48,0.9 -8.9,2.33 -13.26,4.27l-4.28 1.91 -7.39 -14.77 32.65 -42.85c-21.31,-1.16 -41.42,-3.97 -60.32,-8.43 -21.81,-5.15 -42.05,-12.49 -60.73,-22.01 -19.84,-10.12 -37.4,-22.39 -52.68,-36.8 -15.3,-14.43 -28.29,-30.99 -38.96,-49.65 -10.65,-18.63 -18.64,-39.09 -23.97,-61.37 -5.32,-22.21 -7.98,-46.13 -7.98,-71.76 0,-25.94 2.65,-50.06 7.96,-72.34 5.32,-22.36 13.33,-42.89 24,-61.56 10.67,-18.67 23.65,-35.22 38.96,-49.65 15.28,-14.41 32.84,-26.68 52.68,-36.8 39.57,-20.18 86.09,-30.28 139.56,-30.28 16.28,0 32.72,1.06 49.33,3.19 16.59,2.12 33.16,5.29 49.69,9.49 16.6,4.21 32.14,9.31 46.63,15.29 14.49,5.98 27.84,12.83 40.07,20.54l1.89 1.19c6.17,39.41 12.3,78.83 18.45,118.24l-16.67 0 -0.91 -3.8c-5.6,-23.41 -14.01,-43.48 -25.22,-60.22 -11.13,-16.6 -25.06,-29.93 -41.76,-39.98 -16.92,-10.18 -35.55,-17.82 -55.89,-22.91 -20.39,-5.11 -42.52,-7.67 -66.39,-7.67 -20.22,0 -39.02,2.2 -56.41,6.59 -17.34,4.38 -33.3,10.95 -47.87,19.69 -14.56,8.74 -27.49,19.33 -38.79,31.76 -11.3,12.45 -20.96,26.74 -28.96,42.88 -8.03,16.19 -14.06,33.96 -18.08,53.3 -4.03,19.38 -6.05,40.4 -6.05,63.06 0,22.13 2.02,42.76 6.05,61.89 4.02,19.08 10.05,36.71 18.08,52.91 8,16.13 17.69,30.43 29.06,42.87 11.34,12.42 24.36,23 39.06,31.74 14.75,8.77 30.82,15.41 48.22,19.92 17.47,4.53 36.3,6.92 56.47,7.18l0 -0.02c19.34,0 37.67,-1.56 54.98,-4.7 17.29,-3.12 33.69,-7.83 49.19,-14.11 30.7,-12.43 55.68,-31.83 74.95,-58.2 9.6,-13.14 17.12,-28.19 22.57,-45.15 5.47,-17.07 8.86,-36.1 10.13,-57.08l0.28 -4.65 17.02 0 -9.13 113.76 -0.69 1.06c-6.97,10.72 -15,20.69 -24.09,29.92 -9.08,9.22 -19.24,17.7 -30.45,25.44 -11.16,7.71 -23.08,14.53 -35.73,20.46 -12.62,5.91 -25.97,10.93 -40.03,15.04 -12.17,3.56 -24.66,6.35 -37.46,8.37 -12.08,1.91 -24.41,3.12 -36.99,3.65zm697.3 -77.63l0.27 0 1.3 2.95c3.76,8.52 7.93,15.79 12.51,21.79 4.5,5.9 9.38,10.58 14.63,14.04 5.4,3.56 10.64,6.22 15.72,7.97 4.91,1.7 9.73,2.55 14.44,2.55l11.2 0 0 17.7 -170.28 0 0 -17.7 11.2 0c3.62,0 7.09,-0.89 10.4,-2.65l0.01 0.01c3.47,-1.85 6.84,-4.69 10.09,-8.52 2.63,-3.1 4.21,-6.79 4.75,-11.07 0.57,-4.55 0.01,-9.76 -1.69,-15.65l-42.38 -103.27 -191.14 0 -43.64 103.28c-1.69,5.88 -2.25,11.1 -1.68,15.64 0.54,4.28 2.12,7.97 4.75,11.06 3.23,3.81 6.64,6.64 10.23,8.49 3.45,1.78 7.13,2.67 11.04,2.67l11.2 0 0 17.7 -159.33 0 0 -17.7 11.2 0c4.97,0 9.99,-0.86 15.06,-2.57 5.21,-1.76 10.51,-4.41 15.88,-7.95 4.51,-2.97 8.79,-6.85 12.85,-11.63 4.13,-4.86 8,-10.63 11.6,-17.32l163.13 -349.66 4.3 -9.39c1.21,-2.64 2.77,-6.12 4.66,-10.41 1.84,-4.17 3.66,-8.36 5.46,-12.56 1.91,-4.46 3.75,-8.96 5.52,-13.46 1.74,-4.45 3.39,-8.87 4.93,-13.24 1.54,-4.35 2.74,-8.2 3.6,-11.53 0.85,-3.27 1.39,-6.09 1.63,-8.44l0.45 -4.46 14.67 0 191.47 423.31zm-121.52 -125.19l-80.49 -196.14 -82.87 196.14 163.36 0zm275.62 -231.37c-0.25,-5.54 -1.38,-10.58 -3.4,-15.13 -2.01,-4.54 -4.93,-8.61 -8.74,-12.19 -7.65,-7.18 -17.09,-10.78 -28.31,-10.78l-14.33 0 0 -17.7 266.28 0c52.39,0 97.72,9.57 136,28.71 19.22,9.61 36.24,21.32 51.04,35.12 14.84,13.84 27.47,29.77 37.88,47.79 10.4,18 18.21,37.71 23.41,59.12 5.19,21.36 7.78,44.34 7.78,68.94 0,24.6 -2.6,47.55 -7.78,68.84 -5.2,21.34 -13,40.95 -23.41,58.82 -10.42,17.9 -23.05,33.77 -37.88,47.6 -14.81,13.81 -31.82,25.58 -51.02,35.31 -19.16,9.72 -40.1,17 -62.82,21.85 -22.66,4.84 -47.07,7.26 -73.2,7.26l-266.28 0 0 -17.7 15.11 0c5.64,0 10.75,-0.95 15.34,-2.84 4.58,-1.89 8.72,-4.75 12.43,-8.56 3.75,-3.87 6.62,-8.05 8.6,-12.54 1.95,-4.41 3.05,-9.13 3.3,-14.15l-0 -367.76zm60.73 -22.45l0 412.66 150.77 0c29.66,0 56.09,-4.61 79.27,-13.82 23.08,-9.17 43.05,-22.94 59.9,-41.31 16.88,-18.4 29.54,-40.14 37.98,-65.23 8.49,-25.22 12.74,-53.88 12.74,-85.98 0,-32.09 -4.25,-60.76 -12.74,-85.98 -8.44,-25.08 -21.11,-46.83 -37.98,-65.22 -16.85,-18.37 -36.82,-32.14 -59.9,-41.31 -23.18,-9.21 -49.61,-13.82 -79.27,-13.82l-150.77 0zm886.88 379.01l0.27 0 1.3 2.95c3.76,8.52 7.93,15.79 12.51,21.79 4.5,5.9 9.38,10.58 14.63,14.04 5.39,3.56 10.64,6.22 15.72,7.97 4.91,1.7 9.73,2.55 14.44,2.55l11.2 0 0 17.7 -170.28 0 0 -17.7 11.2 0c3.62,0 7.09,-0.89 10.4,-2.65l0.01 0.01c3.47,-1.85 6.84,-4.69 10.08,-8.52 2.63,-3.1 4.21,-6.79 4.75,-11.07 0.57,-4.55 0.01,-9.76 -1.69,-15.65l-42.38 -103.27 -191.14 0 -43.64 103.28c-1.69,5.88 -2.25,11.1 -1.68,15.64 0.54,4.28 2.12,7.97 4.75,11.06 3.23,3.81 6.64,6.64 10.23,8.49 3.45,1.78 7.13,2.67 11.05,2.67l11.2 0 -0 17.7 -159.33 0 0 -17.7 11.2 0c4.97,0 9.99,-0.86 15.06,-2.57 5.21,-1.76 10.51,-4.41 15.88,-7.95 4.51,-2.97 8.79,-6.85 12.85,-11.63 4.13,-4.86 8,-10.63 11.6,-17.32l163.13 -349.66 4.3 -9.39c1.21,-2.64 2.77,-6.12 4.66,-10.41 1.84,-4.17 3.66,-8.36 5.46,-12.56 1.91,-4.46 3.76,-8.96 5.52,-13.46 1.74,-4.45 3.39,-8.87 4.93,-13.24 1.54,-4.35 2.74,-8.2 3.6,-11.53 0.85,-3.27 1.39,-6.09 1.63,-8.44l0.45 -4.46 14.67 0 191.47 423.31zm-121.52 -125.19l-80.49 -196.14 -82.87 196.14 163.36 0z"/>
   </g>
  </g>
 </g>
</svg>
