<?xml version="1.0" encoding="UTF-8"?>
<!DOCTYPE svg PUBLIC "-//W3C//DTD SVG 1.1//EN" "http://www.w3.org/Graphics/SVG/1.1/DTD/svg11.dtd">
<!-- Creator: CorelDRAW 2018 (64 Bit) -->
<svg xmlns="http://www.w3.org/2000/svg" xml:space="preserve" width="178.775mm" height="194.532mm" version="1.1" style="shape-rendering:geometricPrecision; text-rendering:geometricPrecision; image-rendering:optimizeQuality; fill-rule:evenodd; clip-rule:evenodd"
viewBox="0 0 10290.69 11197.69"
 xmlns:xlink="http://www.w3.org/1999/xlink">
 <defs>
  <style type="text/css">
   <![CDATA[
    .fil1 {fill:#071842;fill-rule:nonzero}
    .fil0 {fill:url(#id0);fill-rule:nonzero}
   ]]>
  </style>
  <linearGradient id="id0" gradientUnits="userSpaceOnUse" x1="3694.26" y1="4477.3" x2="6596.3" y2="768.18">
   <stop offset="0" style="stop-opacity:1; stop-color:#A68F59"/>
   <stop offset="0.388235" style="stop-opacity:1; stop-color:#D3B070"/>
   <stop offset="0.619608" style="stop-opacity:1; stop-color:#FBEDCA"/>
   <stop offset="1" style="stop-opacity:1; stop-color:#D3B070"/>
  </linearGradient>
 </defs>
 <g id="Camada_x0020_1">
  <metadata id="CorelCorpID_0Corel-Layer"/>
  <g id="_2616777896096">
   <path class="fil0" d="M7197.39 0l-4104.09 0 0 3029.45 0.34 1.7 0.03 1.32c15.23,691.98 273.12,1138.46 608.1,1444.4 335.56,306.48 749.15,472.67 1073.97,603.18l0.03 0.01c128.04,51.45 241.55,97.06 325.08,141.66l44.5 23.76 44.5 -23.76c83.53,-44.6 197.04,-90.21 325.08,-141.66l0.03 -0.01c324.81,-130.51 738.41,-296.7 1073.97,-603.18 334.98,-305.94 592.87,-752.42 608.1,-1444.4l0.03 -1.32 0.34 -1.7 0 -3029.45zm-1533.8 4591.88c29.01,55.35 54.17,114.13 75.4,177.77l3.44 10.32 -9.94 4.41c-49.69,22.02 -99.35,43.03 -148.06,63.13 -49.06,20.25 -95.42,38.89 -139.93,56.77l-0.06 0.02c-109.58,44.04 -208.82,83.91 -293.85,125.28l-5.24 2.56 -5.24 -2.56c-85.03,-41.37 -184.27,-81.25 -293.85,-125.28l-0.07 -0.03c-45.07,-18.11 -92.02,-36.98 -141.69,-57.5 -48.46,-20.01 -98.53,-41.23 -149.97,-64.08l-10.32 -4.58 3.95 -10.52c3.91,-10.41 7.82,-20.4 11.71,-29.96 3.84,-9.43 8.01,-19.27 12.49,-29.48l3.15 -7.2 975.87 0 -105.98 -162.37 -755.82 0 -27.11 0.14 12.14 -18.61c140.68,-216.07 337.45,-393.56 534.41,-571.23l0.13 -0.12c22.22,-20 41.92,-37.75 55.09,-49.69 16.66,-15.1 36.18,-32.89 60.67,-55.36 91.86,-84.33 181.78,-170.54 265.07,-262.85 83.14,-92.16 159.66,-190.36 224.88,-298.78 66.55,-110.63 120.59,-230.71 156.94,-364.08 36.37,-133.43 55.08,-280.29 50.94,-444.45 -3.87,-153.51 -31.45,-290.19 -77.3,-414.64 -45.85,-124.44 -110,-236.67 -187,-341.27 -74.35,-100.92 -159.9,-193.61 -251.97,-282.87 -92.32,-89.5 -191.2,-175.58 -291.91,-263.06 -101.79,-88.47 -193.82,-169.6 -275.42,-249.05 -81.9,-79.74 -153.37,-157.85 -213.79,-240.05 -49.56,-67.5 -92.2,-138.71 -127.77,-217.26 -35.57,-78.55 -64.06,-164.35 -85.32,-260.98l-3.2 -14.54 1280.79 0 -3.4 14.64c-9.22,39.71 -20.28,78.03 -33.02,115.05 -12.7,36.91 -27.19,72.91 -43.3,108.09l-3.21 7.02 -953.25 0 105.98 162.37 728.1 0 27.63 -0.18 -14.99 24.12c-46.61,68.72 -98.77,133.53 -154.62,195.71 -54.11,60.24 -112.1,118.41 -172.09,175.49 20.4,17.85 46.5,40.56 72.59,63.27 30.86,26.85 61.73,53.71 93.02,81.25 130.72,-125.04 253.45,-256.48 353.25,-406.65 101.59,-152.86 179.53,-325.29 218.1,-530.4l1.84 -9.77 995.03 0 0 2828.79 0.58 0 -0.28 12.2c-10.64,466.34 -146.01,811.4 -342.93,1073.41 -196.81,261.87 -454.89,440.45 -711.29,574.13l-12.18 6.35 -4.6 -12.94c-24.43,-68.57 -52.96,-132.4 -85.53,-192.91 -32.59,-60.54 -69.25,-117.78 -109.89,-173.11 -43.32,-58.98 -90.89,-115.27 -142.69,-170.76 -49.76,-53.3 -103.19,-105.67 -160.36,-158.83 -11.48,10.4 -22.63,20.61 -33.79,30.84 -23.2,21.25 -46.5,42.58 -69.55,62.81l0.18 0.18 -59.23 53.45c55.35,51.07 106.67,100.84 153.81,150.76 49.92,52.87 95.12,105.87 135.4,160.74 36.53,49.7 69.35,101.52 98.4,156.93zm-1010.35 -405.84c-124.27,142.28 -231.04,298.92 -302.89,484.32l-4.82 12.45 -11.82 -6.18c-255.86,-133.79 -513.11,-312.44 -709.22,-574.1 -196.22,-261.8 -331.02,-606.38 -341.64,-1071.69l-0.28 -12.2 0.58 0 0 -2828.79c334.33,-0.08 668.64,-0.01 1002.96,-0.01l1.86 9.77c23.77,125.32 57.6,235.5 101.21,335.75 43.59,100.2 97.02,190.58 160.03,276.37 66.78,90.92 143.61,175.42 230.54,260.47 87.15,85.27 184.49,171.13 292.02,264.54 95.58,83.03 189.43,164.71 276.12,248.4 87.02,84 166.92,170.08 234.34,261.68 64.16,87.17 117.76,180.49 156.32,283.57 38.56,103.11 62.01,215.87 65.87,341.9l0.37 12.3 -1314.66 0 1.2 -13.04c7.48,-81.46 21.96,-157.38 42.33,-228.61 20.39,-71.31 46.72,-138.12 77.86,-201.25l3.3 -6.69 918.02 0 -105.98 -162.38 -715.61 0 13.44 -18.89c43.64,-61.34 91.84,-119.75 143.11,-176.16 48.28,-53.1 99.4,-104.54 152.07,-155.06l-55.04 -47.92c-36.56,-31.8 -73.13,-63.62 -110.16,-96.42 -70.01,67.73 -137.6,137.56 -200.42,211.4 -65.17,76.6 -125.48,157.8 -178.44,245.88 -66.55,110.63 -120.59,230.71 -156.94,364.09 -36.37,133.43 -55.07,280.29 -50.94,444.45 3.84,153.48 31.41,290.19 77.25,414.64 45.84,124.46 110.02,236.71 187.04,341.27 46.88,63.67 98.1,123.95 152.5,182.05 51.92,55.45 107.14,109.31 164.5,162.49 30.61,-27.91 60.6,-54.97 90.63,-82.07 1.6,-1.61 3.71,-3.59 6.34,-5.96 2.27,-2.05 4.44,-3.91 6.51,-5.6l59.15 -53.42c-55.34,-50.96 -108.45,-102.24 -158,-154.55 -52.74,-55.68 -101.7,-112.74 -145.41,-172.12 -63.03,-85.6 -115.86,-177.05 -154.23,-277.75 -38.4,-100.77 -62.32,-210.82 -67.51,-333.57l-0.53 -12.39c437.7,-0.1 875.39,-0.07 1313.09,-0.07l-1.35 13.14c-8.08,78.84 -22.81,152.57 -43.15,221.99 -20.37,69.49 -46.33,134.57 -76.85,196.04l-3.29 6.64 -903.86 0.06 106.12 162.42 700.93 0 -13.51 18.89c-54.36,76.02 -115.72,147.65 -181.28,216.6 -65.51,68.89 -135.11,135.04 -206.1,200.2l-0.05 0c-35.84,32.85 -74.52,67.73 -113.24,102.65l-0.78 0.71c-142.6,128.62 -285.12,257.18 -409.63,399.73z"/>
   <g>
    <path class="fil1" d="M1732.18 6710.07c0,35.75 -12.23,65.44 -36.68,89.07 -24.45,23.62 -61.74,35.44 -111.87,35.44l-82.6 0 0 179.36 -56.09 0 0 -429.6 138.68 0c48.48,0 85.36,11.71 110.63,35.13 25.27,23.42 37.91,53.62 37.91,90.61zm-148.54 78.28c31.23,0 54.24,-6.78 69.03,-20.34 14.79,-13.56 22.18,-32.87 22.18,-57.94 0,-53.01 -30.4,-79.51 -91.22,-79.51l-82.6 0 0 157.79 82.6 0zm612.45 229.9c-39.86,0 -76.22,-9.35 -109.1,-28.04 -32.87,-18.7 -58.86,-44.79 -77.97,-78.28 -19.11,-33.49 -28.66,-71.19 -28.66,-113.1 0,-41.91 9.55,-79.61 28.66,-113.1 19.1,-33.49 45.09,-59.58 77.97,-78.27 32.87,-18.7 69.24,-28.05 109.1,-28.05 40.27,0 76.84,9.35 109.71,28.05 32.87,18.69 58.77,44.69 77.66,77.97 18.9,33.28 28.36,71.08 28.36,113.41 0,42.33 -9.45,80.13 -28.36,113.41 -18.9,33.29 -44.79,59.27 -77.66,77.97 -32.87,18.7 -69.44,28.04 -109.71,28.04zm0 -48.69c30,0 57.01,-6.99 81.05,-20.96 24.04,-13.97 42.94,-33.9 56.7,-59.78 13.76,-25.89 20.65,-55.89 20.65,-89.99 0,-34.51 -6.88,-64.61 -20.65,-90.3 -13.77,-25.68 -32.57,-45.51 -56.4,-59.48 -23.84,-13.97 -50.95,-20.95 -81.36,-20.95 -30.41,0 -57.53,6.98 -81.36,20.95 -23.83,13.97 -42.63,33.79 -56.39,59.48 -13.77,25.68 -20.65,55.78 -20.65,90.3 0,34.11 6.88,64.1 20.65,89.99 13.76,25.89 32.67,45.81 56.7,59.78 24.04,13.97 51.06,20.96 81.05,20.96zm61.64 -478.3l-131.29 70.27 0 -41.91 131.29 -77.05 0 48.69zm563.75 526.99c-28.35,0 -53.72,-5.04 -76.12,-15.1 -22.39,-10.07 -39.96,-24.04 -52.7,-41.91 -12.73,-17.87 -19.31,-38.53 -19.72,-61.94l59.78 0c2.05,20.14 10.38,37.08 24.96,50.85 14.59,13.76 35.85,20.65 63.79,20.65 26.71,0 47.77,-6.68 63.18,-20.03 15.41,-13.36 23.11,-30.51 23.11,-51.47 0,-16.44 -4.52,-29.79 -13.56,-40.06 -9.04,-10.27 -20.34,-18.08 -33.9,-23.42 -13.56,-5.34 -31.84,-11.1 -54.85,-17.26 -28.36,-7.4 -51.06,-14.79 -68.11,-22.18 -17.06,-7.4 -31.64,-19.01 -43.76,-34.83 -12.12,-15.82 -18.18,-37.09 -18.18,-63.8 0,-23.42 5.96,-44.17 17.87,-62.25 11.92,-18.07 28.67,-32.05 50.23,-41.91 21.57,-9.86 46.33,-14.79 74.27,-14.79 40.27,0 73.24,10.07 98.93,30.2 25.68,20.14 40.17,46.84 43.45,80.13l-61.64 0c-2.05,-16.43 -10.68,-30.92 -25.89,-43.45 -15.2,-12.53 -35.34,-18.8 -60.41,-18.8 -23.42,0 -42.53,6.06 -57.32,18.18 -14.79,12.12 -22.19,29.07 -22.19,50.85 0,15.62 4.42,28.36 13.26,38.22 8.83,9.86 19.72,17.36 32.67,22.5 12.94,5.13 31.12,10.99 54.55,17.57 28.36,7.81 51.16,15.51 68.42,23.11 17.26,7.6 32.05,19.31 44.37,35.14 12.33,15.82 18.49,37.29 18.49,64.41 0,20.96 -5.55,40.68 -16.64,59.17 -11.1,18.49 -27.53,33.49 -49.31,44.99 -21.78,11.51 -47.46,17.26 -77.05,17.26zm915.09 -309.41c-11.92,-25.07 -29.17,-44.48 -51.77,-58.25 -22.6,-13.77 -48.9,-20.65 -78.9,-20.65 -29.99,0 -57.01,6.88 -81.05,20.65 -24.04,13.76 -42.94,33.49 -56.71,59.17 -13.76,25.68 -20.65,55.37 -20.65,89.07 0,33.69 6.88,63.28 20.65,88.76 13.77,25.48 32.67,45.09 56.71,58.86 24.04,13.77 51.06,20.65 81.05,20.65 41.92,0 76.43,-12.53 103.55,-37.6 27.12,-25.06 42.94,-58.96 47.47,-101.7l-171.35 0 0 -45.61 231.14 0 0 43.14c-3.29,35.34 -14.38,67.7 -33.28,97.08 -18.9,29.38 -43.76,52.59 -74.58,69.65 -30.82,17.05 -65.13,25.58 -102.94,25.58 -39.86,0 -76.22,-9.35 -109.09,-28.05 -32.87,-18.69 -58.86,-44.69 -77.97,-77.97 -19.11,-33.28 -28.67,-70.88 -28.67,-112.79 0,-41.91 9.56,-79.61 28.67,-113.1 19.1,-33.49 45.09,-59.58 77.97,-78.27 32.87,-18.7 69.24,-28.05 109.09,-28.05 45.61,0 85.99,11.3 121.12,33.9 35.14,22.6 60.71,54.45 76.74,95.54l-67.18 0zm579.78 305.1l-102.32 -175.66 -67.8 0 0 175.66 -56.09 0 0 -429.6 138.68 0c32.46,0 59.89,5.55 82.28,16.64 22.4,11.09 39.14,26.09 50.23,45 11.1,18.9 16.64,40.47 16.64,64.72 0,29.58 -8.52,55.67 -25.57,78.28 -17.05,22.6 -42.63,37.59 -76.74,44.99l107.86 179.98 -67.18 0zm-170.12 -220.66l82.6 0c30.4,0 53.21,-7.5 68.41,-22.5 15.21,-15 22.81,-35.03 22.81,-60.09 0,-25.48 -7.5,-45.2 -22.5,-59.17 -15,-13.97 -37.91,-20.95 -68.72,-20.95l-82.6 0 0 162.72zm772.09 125.12l-187.38 0 -34.51 95.54 -59.17 0 155.32 -427.14 64.72 0 154.7 427.14 -59.17 0 -34.51 -95.54zm-16.03 -45.61l-77.66 -216.96 -77.66 216.96 155.33 0zm510.75 -288.46c46.84,0 87.42,8.73 121.73,26.2 34.31,17.46 60.61,42.42 78.89,74.89 18.29,32.46 27.43,70.67 27.43,114.64 0,43.97 -9.14,82.08 -27.43,114.34 -18.29,32.26 -44.58,56.91 -78.89,73.96 -34.31,17.06 -74.89,25.58 -121.73,25.58l-133.75 0 0 -429.6 133.75 0zm0 383.38c55.47,0 97.8,-14.69 126.97,-44.07 29.17,-29.38 43.76,-70.57 43.76,-123.58 0,-53.42 -14.68,-95.12 -44.06,-125.12 -29.38,-30 -71.6,-45 -126.67,-45l-77.66 0 0 337.77 77.66 0zm556.36 -383.38l0 271.81c0,38.22 9.35,66.56 28.04,85.06 18.7,18.49 44.69,27.73 77.97,27.73 32.87,0 58.66,-9.24 77.35,-27.73 18.7,-18.49 28.04,-46.84 28.04,-85.06l0 -271.81 56.09 0 0 271.2c0,35.75 -7.2,65.85 -21.57,90.3 -14.38,24.45 -33.79,42.63 -58.25,54.55 -24.45,11.92 -51.88,17.88 -82.28,17.88 -30.41,0 -57.84,-5.96 -82.29,-17.88 -24.45,-11.92 -43.76,-30.1 -57.94,-54.55 -14.17,-24.45 -21.26,-54.55 -21.26,-90.3l0 -271.2 56.09 0zm814.62 334.07l-187.37 0 -34.52 95.54 -59.17 0 155.32 -427.14 64.72 0 154.71 427.14 -59.17 0 -34.51 -95.54zm-16.03 -45.61l-77.66 -216.96 -77.66 216.96 155.33 0zm570.54 96.15c31.23,0 58.04,-6.88 80.44,-20.65 22.39,-13.76 39.55,-33.59 51.47,-59.47l67.18 0c-14.79,37.8 -37.7,67.8 -68.72,89.99 -31.03,22.18 -67.28,34.92 -108.79,38.21l0 32.67c24.24,-0.41 43.55,4.73 57.94,15.41 14.38,10.68 21.57,25.89 21.57,45.61 0,19.31 -6.99,34.72 -20.96,46.23 -13.97,11.51 -32.05,17.26 -54.24,17.26l-70.88 0 0 -36.36 59.79 0c13.56,0 23.52,-2.05 29.89,-6.16 6.37,-4.11 9.55,-11.1 9.55,-20.96 0,-9.45 -3.18,-16.23 -9.55,-20.34 -6.37,-4.11 -16.34,-6.16 -29.89,-6.16l-30.82 0 0 -67.19c-37.39,-2.46 -71.19,-13.25 -101.39,-32.36 -30.2,-19.11 -53.94,-44.79 -71.19,-77.05 -17.26,-32.25 -25.89,-68.52 -25.89,-108.79 0,-41.91 9.45,-79.61 28.35,-113.1 18.9,-33.49 44.69,-59.68 77.35,-78.58 32.67,-18.9 68.94,-28.36 108.79,-28.36 46.84,0 87.73,11.3 122.65,33.9 34.93,22.6 60.41,54.65 76.43,96.15l-67.18 0c-11.92,-25.89 -29.07,-45.82 -51.47,-59.79 -22.4,-13.97 -49.21,-20.95 -80.44,-20.95 -30,0 -56.91,6.98 -80.75,20.95 -23.83,13.97 -42.53,33.79 -56.08,59.48 -13.56,25.68 -20.34,55.78 -20.34,90.3 0,34.11 6.78,64 20.34,89.68 13.56,25.68 32.25,45.51 56.08,59.48 23.84,13.97 50.75,20.95 80.75,20.95zm735.72 -50.54l-187.37 0 -34.51 95.54 -59.17 0 155.33 -427.14 64.72 0 154.7 427.14 -59.17 0 -34.52 -95.54zm-16.02 -45.61l-77.66 -216.96 -77.66 216.96 155.33 0zm-168.27 -322.35c2.87,-20.96 9.76,-36.98 20.65,-48.08 10.89,-11.1 24.55,-16.64 40.98,-16.64 7.81,0 14.48,1.33 20.03,4 5.55,2.68 12.23,6.48 20.03,11.4 5.76,4.11 10.89,7.29 15.41,9.56 4.52,2.26 9.45,3.39 14.79,3.39 6.99,0 12.95,-2.26 17.87,-6.78 4.93,-4.52 8.01,-11.09 9.25,-19.72l32.05 0c-2.47,20.54 -9.25,36.37 -20.34,47.46 -11.09,11.09 -24.86,16.64 -41.3,16.64 -7.81,0 -14.69,-1.34 -20.65,-4.01 -5.96,-2.67 -12.63,-6.68 -20.03,-12.02 -6.58,-4.11 -11.82,-7.19 -15.72,-9.24 -3.9,-2.05 -8.52,-3.09 -13.87,-3.09 -6.98,0 -12.84,2.26 -17.57,6.78 -4.73,4.52 -7.7,11.3 -8.94,20.34l-32.66 0zm740.04 467.82c-39.86,0 -76.22,-9.35 -109.1,-28.04 -32.87,-18.7 -58.86,-44.79 -77.97,-78.28 -19.11,-33.49 -28.66,-71.19 -28.66,-113.1 0,-41.91 9.55,-79.61 28.66,-113.1 19.1,-33.49 45.09,-59.58 77.97,-78.27 32.87,-18.7 69.24,-28.05 109.1,-28.05 40.26,0 76.84,9.35 109.71,28.05 32.87,18.69 58.76,44.69 77.66,77.97 18.9,33.28 28.36,71.08 28.36,113.41 0,42.33 -9.45,80.13 -28.36,113.41 -18.9,33.29 -44.79,59.27 -77.66,77.97 -32.87,18.7 -69.44,28.04 -109.71,28.04zm0 -48.69c29.99,0 57.01,-6.99 81.05,-20.96 24.04,-13.97 42.94,-33.9 56.71,-59.78 13.76,-25.89 20.65,-55.89 20.65,-89.99 0,-34.51 -6.88,-64.61 -20.65,-90.3 -13.77,-25.68 -32.57,-45.51 -56.4,-59.48 -23.84,-13.97 -50.95,-20.95 -81.36,-20.95 -30.41,0 -57.53,6.98 -81.36,20.95 -23.83,13.97 -42.63,33.79 -56.39,59.48 -13.77,25.68 -20.65,55.78 -20.65,90.3 0,34.11 6.88,64.1 20.65,89.99 13.76,25.89 32.67,45.81 56.7,59.78 24.04,13.97 51.06,20.96 81.05,20.96z"/>
    <path class="fil1" d="M9329.24 7857.41c89.61,0 173.88,14.44 252.78,43.3 39.48,14.44 76.58,32.03 111.28,52.76 34.67,20.7 66.98,44.58 96.91,71.61 29.92,27.03 56.55,56.56 79.89,88.59 23.4,32.11 43.44,66.62 60.13,103.53 33.5,74.09 50.26,156.11 50.26,246.06 0,89.95 -16.76,171.97 -50.26,246.06 -16.69,36.91 -36.73,71.42 -60.13,103.53 -23.34,32.03 -49.97,61.57 -79.89,88.59 -29.93,27.04 -62.24,50.91 -96.91,71.62 -34.7,20.73 -71.8,38.32 -111.28,52.76 -39.48,14.44 -80.29,25.27 -122.4,32.48 -42.19,7.22 -85.66,10.83 -130.38,10.83 -89.65,0 -173.62,-14.44 -251.89,-43.3 -39.1,-14.42 -75.95,-32.01 -110.53,-52.76 -34.51,-20.71 -66.75,-44.59 -96.68,-71.62 -29.92,-27.02 -56.55,-56.55 -79.89,-88.59 -23.39,-32.1 -43.44,-66.62 -60.13,-103.53 -16.73,-37.01 -29.29,-76.07 -37.67,-117.19 -8.38,-41.11 -12.58,-84.08 -12.58,-128.87 0,-44.79 4.2,-87.75 12.58,-128.86 8.38,-41.12 20.95,-80.19 37.67,-117.19 16.69,-36.91 36.74,-71.42 60.13,-103.53 23.34,-32.04 49.98,-61.57 79.89,-88.59 29.93,-27.03 62.16,-50.91 96.68,-71.61 34.58,-20.75 71.42,-38.34 110.53,-52.76 39.13,-14.43 79.71,-25.26 121.73,-32.48 42.03,-7.21 85.42,-10.83 130.15,-10.83zm-7976.26 -162.66l401.58 0 0 42.79 -45.99 0c-14.23,0 -27.4,2.46 -39.49,7.39 -12.14,4.94 -23.32,12.38 -33.54,22.31 -10.23,9.95 -18.04,21.07 -23.4,33.35 -5.34,12.23 -8.32,25.7 -8.93,40.4l0.03 0 0 974.1c0,20.91 0.31,40.57 0.9,58.97 0.61,18.85 1.56,37.71 2.84,56.57 2.51,37.05 5.32,67.05 8.42,89.99l6.56 48.51 -35.78 0 -1015.41 -1081.82 1.36 897.17 0.27 0 0 11.94c0,28.23 10.18,52.53 30.55,72.9 20.36,20.36 44.66,30.55 72.89,30.55l47.88 0 0 42.79 -413.52 0 0 -42.79 47.87 0c28.23,0 52.53,-10.19 72.9,-30.55 20.37,-20.37 30.55,-44.66 30.55,-72.9l0 -981.67c0,-32.37 -0.7,-62.11 -2.08,-89.23 -1.39,-27.28 -3.51,-52.56 -6.33,-75.82l-10.14 -83.32 37.51 0 1013.77 1081.82 0 -907.21 0.03 0c-0.6,-14.72 -3.52,-28.23 -8.74,-40.49 -5.21,-12.25 -12.81,-23.37 -22.78,-33.34l0 -0.05c-9.87,-9.87 -20.91,-17.26 -33.12,-22.17 -12.23,-4.92 -25.82,-7.39 -40.73,-7.39l-47.87 0 0 -42.79 11.94 0zm1744.51 201.08l0 30.85 -40.31 0c-20.97,0 -39.14,6.86 -54.49,20.57 -15.02,13.41 -23.15,29.69 -24.37,48.83l0.01 635.53c0,134.64 -43.23,241.29 -129.7,319.96 -43.14,39.24 -94.3,68.68 -153.48,88.29 -58.85,19.51 -125.43,29.26 -199.73,29.26 -73.73,0 -139.98,-9.66 -198.74,-28.98 -59.13,-19.44 -110.59,-48.62 -154.38,-87.54 -43.89,-39.02 -76.85,-85.25 -98.83,-138.67 -21.9,-53.21 -32.85,-113.36 -32.85,-180.43l0 -637.42c-1.21,-19.23 -9.07,-35.56 -23.55,-48.97 -14.7,-13.61 -33.14,-20.42 -55.3,-20.42l-40.31 0 0 -42.79 383.25 0 0 42.79 -40.31 0c-21.03,0 -39.57,6.91 -55.57,20.71 -7.87,6.79 -13.74,14.24 -17.59,22.33 -3.79,7.97 -5.69,16.77 -5.69,26.36l0 614.72c0,59.98 7.6,113.47 22.8,160.44 15.09,46.65 37.69,87.01 67.8,121.06 29.99,33.93 65.49,59.37 106.5,76.32 41.21,17.03 88.17,25.55 140.88,25.55 116.59,0 208.08,-32.28 274.47,-96.84 33.09,-32.18 57.91,-70.29 74.47,-114.35 16.65,-44.29 24.98,-94.76 24.98,-151.38l0 -635.53c0,-9.68 -1.84,-18.52 -5.5,-26.5 -3.72,-8.11 -9.38,-15.56 -16.97,-22.33 -7.64,-6.83 -16.15,-11.97 -25.49,-15.4 -9.36,-3.44 -19.66,-5.16 -30.89,-5.16l-40.31 0 0 -42.79 349.21 0 0 11.94zm86.37 -43.44c5.02,1.67 11.93,3.63 20.72,5.87 8.63,2.2 18.66,4.53 30.08,7.01 11.85,2.56 23.99,4.82 36.42,6.76 12.63,1.97 26.24,3.76 40.82,5.34 14.06,1.53 27.69,2.68 40.87,3.46 13.38,0.79 26.06,1.2 38.02,1.22l0 -0.05 617.09 0 0 0.05c11.96,-0.02 24.56,-0.43 37.78,-1.22 12.94,-0.77 26.32,-1.93 40.12,-3.46 14.37,-1.59 27.84,-3.38 40.39,-5.34 12.65,-1.99 24.99,-4.24 36.99,-6.76 11.59,-2.44 21.84,-4.78 30.74,-7.01 8.81,-2.2 15.79,-4.16 20.91,-5.87l15.67 -5.23 -0.01 242.18 -44.68 0 0 -42.2c0,-11.8 -1.87,-22.61 -5.59,-32.41l0 -0.05c-3.69,-9.71 -9.27,-18.58 -16.72,-26.58 -7.36,-7.9 -16.02,-13.97 -25.97,-18.2 -10.06,-4.27 -21.51,-6.71 -34.35,-7.32l-330.41 0.03 0 947.03c1.21,24.28 11.31,45.35 30.27,63.2 9.58,9.03 20.14,15.78 31.64,20.27 11.48,4.48 24.07,6.73 37.74,6.73l32.75 0 0 42.79 -413.52 0 0 -42.79 34.63 0c13.68,0 26.27,-2.24 37.75,-6.73 11.5,-4.49 22.06,-11.25 31.64,-20.27 18.97,-17.84 29.06,-38.92 30.29,-63.2l-0.02 -947.03 -330.42 0c-12.84,0.58 -24.29,3.02 -34.35,7.29 -9.95,4.23 -18.62,10.29 -25.97,18.2 -7.43,7.98 -13.01,16.87 -16.73,26.63 -3.72,9.78 -5.59,20.59 -5.59,32.41l0 42.2 -44.68 0 0 -242.18 15.67 5.22zm1430.57 1057.26c0.6,12.15 3.25,23.46 7.92,33.92 4.73,10.57 11.65,20.42 20.75,29.51 8.96,8.97 18.98,15.67 30.04,20.09 11.13,4.45 23.53,6.68 37.18,6.68l35.35 0 4.28 42.79 -412.84 0 0 -42.79 38.42 0c13.66,0 26.06,-2.23 37.19,-6.68 11.05,-4.42 21.07,-11.13 30.04,-20.09 7.33,-7.33 13.22,-15.09 17.67,-23.29 4.24,-7.81 7.28,-16.16 9.1,-25.04l0 -925.61c-1.81,-9.03 -4.84,-17.42 -9.1,-25.17 -4.44,-8.09 -10.23,-15.49 -17.39,-22.19 -17.85,-16.74 -40.36,-25.11 -67.5,-25.11l-38.42 0 0 -42.79 486.69 0c29.93,0 58.58,1.78 85.95,5.35 27.29,3.55 53.04,8.88 77.24,15.97 24.23,7.1 46.8,15.89 67.68,26.33 20.91,10.45 40.04,22.55 57.38,36.3l0.05 0c34.85,27.62 61.51,61.21 79.96,100.75 9.23,19.78 16.15,40.85 20.75,63.19 4.6,22.35 6.9,45.84 6.9,70.47 0,54.96 -13.12,106.08 -39.37,153.31 -13.1,23.58 -28.74,45.03 -46.88,64.33 -18.14,19.28 -38.81,36.44 -62.01,51.47 -23.19,15.03 -47.93,27.11 -74.2,36.25 -15.92,5.54 -32.38,9.99 -49.39,13.37 2.3,1.67 4.63,3.43 6.98,5.27 12.88,10.11 26.63,22.97 41.26,38.57 14.51,15.48 27.86,30.66 40.04,45.53 12.32,15.04 23.62,29.94 33.9,44.72l24.35 32.82c8.28,11.14 17.6,23.37 27.95,36.66 10.13,13.01 21.85,27.79 35.14,44.31 12.66,15.75 25.47,31.38 38.38,46.84 12.95,15.51 25.54,30.29 37.75,44.34 13.36,14.61 25.97,28.1 37.84,40.43 12.05,12.53 23.55,24.1 34.47,34.72 10.62,10.31 21.63,19.45 33.03,27.39 11.32,7.89 23.17,14.71 35.54,20.44 12.02,5.57 25.09,9.78 39.18,12.59 14.19,2.84 29.42,4.26 45.67,4.26l11.94 0 0 42.79 -70.57 0c-35.07,0 -67.29,-2.27 -96.63,-6.81 -29.48,-4.56 -55.78,-11.4 -78.88,-20.51 -22.96,-9.05 -43.8,-19.2 -62.54,-30.44 -18.87,-11.32 -35.54,-23.73 -50,-37.2 -14,-13.04 -27.09,-25.89 -39.25,-38.53 -11.99,-12.46 -23.2,-24.88 -33.61,-37.25l-0.18 -0.24c-5.19,-6.48 -17,-22.75 -35.42,-48.79l-59.58 -84.17 -30.74 -43.22c-10.94,-15.34 -20.28,-28.41 -27.85,-38.96l-21.28 -29.56c-5.23,-7.24 -8.78,-12.1 -10.63,-14.57 -12.32,-15.99 -25.55,-31.15 -39.7,-45.45 -14.1,-14.25 -29.19,-27.72 -45.27,-40.4 -15.47,-12.2 -31.27,-21.3 -47.38,-27.31 -15.91,-5.93 -32.34,-8.9 -49.28,-8.9l-11.94 0 0 -43.13 42.57 1.33c10,0.31 21.35,0.39 34.04,0.24 12.6,-0.15 26.83,-0.55 42.67,-1.19l0.05 0c34.7,-1.24 69.67,-4.06 104.9,-8.46 16.66,-2.08 32.74,-6.3 48.23,-12.64 15.62,-6.4 30.78,-14.99 45.47,-25.79 14.25,-10.47 27.05,-24.55 38.39,-42.23 11.64,-18.13 21.71,-39.94 30.19,-65.38l0.09 -0.33c2.34,-6.44 4.42,-13.54 6.2,-21.3 1.83,-7.94 3.35,-16.4 4.55,-25.36 1.21,-9.09 1.97,-18.32 2.27,-27.68 0.3,-9.3 0.14,-18.87 -0.47,-28.71l0 -0.28c-0.6,-16.93 -2.5,-32.98 -5.68,-48.12 -3.13,-14.9 -7.55,-28.96 -13.25,-42.16 -5.68,-13.15 -12.51,-25.36 -20.5,-36.59 -8.06,-11.35 -17.27,-21.76 -27.64,-31.23 -10.34,-9.45 -21.78,-17.96 -34.31,-25.51 -12.55,-7.56 -26,-14.04 -40.31,-19.4 -14.47,-5.42 -29.88,-9.65 -46.23,-12.68 -16.46,-3.05 -33.85,-4.89 -52.13,-5.49l-0.09 0c-29.71,-1.27 -57.35,-2.05 -82.9,-2.37 -25.63,-0.31 -49.43,-0.16 -71.41,0.47 -16.69,0.47 -30.36,0.78 -41.02,0.89l-9.79 0.06 -0.01 942.35zm1063.74 -892.77c-0.6,-12.51 -3.68,-23.97 -9.21,-34.36 -5.67,-10.65 -14.03,-20.37 -25.05,-29.14 -11.17,-8.88 -23.57,-15.54 -37.17,-19.98 -13.73,-4.48 -28.82,-6.72 -45.26,-6.72l-38.42 0 0 -42.79 454.45 0 -4.28 42.79 -35.35 0c-32.56,0 -60.04,8.9 -82.43,26.7 -11.03,8.77 -19.39,18.49 -25.06,29.14 -5.53,10.38 -8.61,21.84 -9.22,34.36l0.02 892.77c1.21,23.98 12.69,44.88 34.39,62.69 11.16,9.15 23.54,16.02 37.13,20.6 13.68,4.6 28.74,6.91 45.16,6.91l35.35 0 4.28 42.79 -454.45 0 0 -42.79 38.42 0c16.43,0 31.49,-2.31 45.16,-6.91 13.6,-4.58 25.97,-11.45 37.13,-20.6 11.06,-9.08 19.47,-18.94 25.19,-29.56 5.54,-10.26 8.61,-21.3 9.22,-33.13l-0.01 -892.77zm1113.89 1051.47l-47.68 56.98c7.62,-1.17 15.66,-2 24.13,-2.49 11.73,-0.67 23.34,-0.24 34.83,1.28 11.43,1.51 22.73,4.13 33.87,7.84 11.59,3.86 22.24,9.17 31.92,15.92 9.67,6.73 18.5,14.97 26.5,24.7 8.25,10.05 14.59,22.11 18.98,36.17 4.24,13.56 6.69,29.11 7.37,46.63l0 0.05c0.68,21.22 -2.52,40.63 -9.59,58.23 -7.13,17.73 -18.12,33.51 -32.97,47.32 -14.43,13.42 -30.71,24.5 -48.8,33.21 -17.97,8.65 -37.74,14.97 -59.3,18.95 -21.46,3.96 -43.15,5.28 -65.03,3.97 -21.87,-1.31 -43.96,-5.26 -66.26,-11.81l-9.47 -2.79 3.95 -39.49 10.76 0c12.78,0 25.47,-0.9 38.04,-2.69 12.65,-1.81 25.36,-4.54 38.13,-8.19 24.48,-6.99 44.82,-18.6 61.02,-34.8 15.19,-15.19 22.24,-36.15 21.14,-62.88 -0.55,-11.63 -2.79,-21.55 -6.68,-29.75 -3.66,-7.71 -8.9,-13.96 -15.71,-18.75 -7.5,-5.28 -15.76,-9.31 -24.77,-12.08 -9.23,-2.84 -19.28,-4.4 -30.12,-4.69 -11.12,-0.29 -22.08,0.66 -32.86,2.84 -10.82,2.19 -21.51,5.64 -32.04,10.32l-10.36 4.6 -17.86 -35.72 78.92 -103.58c-51.52,-2.81 -100.14,-9.61 -145.82,-20.39 -52.71,-12.44 -101.65,-30.19 -146.79,-53.22 -47.96,-24.46 -90.41,-54.12 -127.36,-88.96 -36.98,-34.89 -68.38,-74.9 -94.16,-120.02 -25.74,-45.04 -45.06,-94.49 -57.96,-148.34 -12.85,-53.69 -19.29,-111.51 -19.29,-173.46 0,-62.71 6.42,-121 19.24,-174.87 12.87,-54.06 32.21,-103.67 58.01,-148.81 25.78,-45.12 57.18,-85.13 94.16,-120.02 36.94,-34.84 79.4,-64.5 127.36,-88.96 95.65,-48.79 208.1,-73.18 337.35,-73.18 39.35,0 79.1,2.57 119.24,7.71 40.1,5.13 80.16,12.78 120.13,22.93 40.12,10.19 77.7,22.51 112.71,36.97 35.02,14.45 67.31,31 96.86,49.64l4.57 2.88c14.9,95.27 29.74,190.55 44.6,285.82l-40.29 0 -2.19 -9.19c-13.53,-56.59 -33.86,-105.11 -60.98,-145.56 -26.91,-40.13 -60.57,-72.36 -100.96,-96.65 -40.89,-24.6 -85.93,-43.07 -135.09,-55.4 -49.28,-12.36 -102.78,-18.54 -160.48,-18.54 -48.87,0 -94.33,5.31 -136.37,15.94 -41.91,10.59 -80.49,26.46 -115.71,47.59 -35.2,21.12 -66.46,46.72 -93.76,76.78 -27.32,30.09 -50.66,64.64 -70.01,103.65 -19.42,39.14 -33.98,82.09 -43.71,128.85 -9.75,46.86 -14.62,97.67 -14.62,152.44 0,53.5 4.87,103.37 14.62,149.6 9.72,46.11 24.29,88.75 43.71,127.9 19.34,39 42.76,73.55 70.24,103.64 27.41,30.02 58.89,55.59 94.42,76.73 35.65,21.2 74.51,37.26 116.56,48.16 42.23,10.94 87.74,16.73 136.51,17.35l0 -0.05c46.75,0 91.06,-3.79 132.91,-11.35 41.79,-7.55 81.43,-18.93 118.91,-34.1 74.2,-30.05 134.6,-76.95 181.18,-140.69 23.2,-31.75 41.39,-68.14 54.55,-109.14 13.24,-41.27 21.41,-87.26 24.5,-137.98l0.68 -11.24 41.15 0 -22.08 274.98 -1.67 2.57c-16.84,25.91 -36.25,50.02 -58.24,72.32 -21.96,22.28 -46.5,42.79 -73.6,61.5 -26.99,18.63 -55.78,35.12 -86.37,49.45 -30.51,14.29 -62.77,26.42 -96.77,36.36 -29.41,8.61 -59.61,15.36 -90.56,20.24 -29.19,4.6 -59,7.55 -89.4,8.82zm1010.79 -1287.3l-32.76 0 2.05 -13.67c1.95,-13 4.39,-25.29 7.32,-36.86 2.94,-11.58 6.4,-22.53 10.4,-32.86 3.97,-10.26 8.26,-19.75 12.86,-28.44 4.7,-8.92 9.73,-17.05 15.07,-24.39 5.5,-7.56 11.47,-14.3 17.9,-20.21 6.52,-5.99 13.47,-11.09 20.83,-15.3 7.49,-4.28 15.32,-7.51 23.46,-9.68 8.14,-2.17 16.48,-3.26 25.02,-3.26 15.38,0 30.55,1.77 45.5,5.29 14.93,3.53 29.57,8.79 43.89,15.78 13.69,6.68 26.98,13.45 39.86,20.28 12.57,6.67 25.07,13.61 37.5,20.8 11.24,6.51 22.07,11.36 32.47,14.53 10.13,3.09 20.01,4.64 29.65,4.64 8.36,0 16.08,-0.51 23.15,-1.51 7.12,-1.02 13.62,-2.5 19.47,-4.46 5.62,-1.87 11,-4.4 16.11,-7.58 5.01,-3.12 9.74,-6.9 14.17,-11.32 4.48,-4.48 8.36,-9.31 11.6,-14.45 3.33,-5.27 6.11,-10.98 8.34,-17.1l2.86 -7.88 40.56 0 -1.47 13.24c-2.63,23.68 -7.58,45.42 -14.84,65.22 -3.68,10.06 -7.9,19.3 -12.61,27.73 -4.77,8.52 -10.1,16.25 -15.97,23.15 -5.87,6.9 -12.19,13.04 -18.94,18.41 -6.72,5.34 -13.97,9.96 -21.72,13.84 -7.85,3.93 -15.99,6.86 -24.4,8.78 -8.52,1.95 -17.29,2.92 -26.31,2.92 -14.22,0 -28.6,-1.86 -43.13,-5.58 -14.25,-3.64 -28.76,-9.16 -43.52,-16.54 -14.55,-7.28 -28.11,-14.25 -40.66,-20.9 -12.52,-6.64 -25.31,-13.64 -38.35,-20.99 -11.42,-6.45 -22.52,-11.29 -33.28,-14.53 -10.37,-3.13 -20.35,-4.69 -29.93,-4.69 -6.79,0 -13.34,0.63 -19.66,1.89 -6.35,1.27 -12.43,3.15 -18.24,5.64 -5.77,2.48 -11.1,5.54 -15.97,9.2 -4.94,3.7 -9.47,8.04 -13.6,12.98 -4.31,5.17 -8.43,11.1 -12.36,17.8 -3.96,6.74 -7.75,14.33 -11.36,22.77l-3.12 7.28 -7.84 0zm215.14 83.41l459.64 1016.23 0.66 0 3.15 7.14c9.09,20.6 19.17,38.16 30.24,52.66 10.88,14.26 22.67,25.58 35.37,33.95 13.04,8.59 25.71,15.02 38.01,19.26 11.88,4.1 23.52,6.16 34.9,6.16l27.07 0 0 42.79 -411.62 0 0 -42.79 27.07 0c8.74,0 17.13,-2.14 25.14,-6.4l0.02 0.03c8.39,-4.47 16.53,-11.35 24.38,-20.6 6.35,-7.49 10.18,-16.41 11.48,-26.76 1.37,-10.99 0.02,-23.6 -4.08,-37.83l-102.44 -249.62 -462.05 0 -105.48 249.66c-4.08,14.22 -5.44,26.82 -4.06,37.81 1.3,10.34 5.13,19.25 11.47,26.74 7.81,9.2 16.05,16.04 24.73,20.52 8.34,4.3 17.24,6.45 26.7,6.45l27.07 0 0 42.79 -385.14 0 0 -42.79 27.07 0c12.02,0 24.16,-2.07 36.42,-6.21 12.6,-4.25 25.41,-10.66 38.39,-19.21 10.9,-7.18 21.25,-16.55 31.06,-28.1 9.98,-11.74 19.34,-25.7 28.05,-41.86l394.34 -845.24 10.4 -22.7c2.92,-6.38 6.69,-14.8 11.25,-25.16 4.44,-10.07 8.84,-20.2 13.19,-30.36 4.63,-10.79 9.08,-21.65 13.34,-32.53 4.21,-10.76 8.19,-21.44 11.92,-32.02 3.71,-10.52 6.61,-19.81 8.7,-27.86 2.04,-7.91 3.36,-14.72 3.93,-20.41l1.08 -10.78 35.46 0 3.19 7.05zm165.89 713.6l-194.58 -474.12 -200.32 474.12 394.9 0zm1145.37 410.45c91.16,0 173.61,-22.13 247.34,-66.37 36.88,-22.13 69.93,-48.57 99.15,-79.33 29.25,-30.79 54.66,-65.9 76.2,-105.3 21.52,-39.36 37.69,-81.86 48.48,-127.52 10.82,-45.73 16.23,-94.64 16.23,-146.73 0,-52.71 -5.41,-102.02 -16.23,-147.91 -10.78,-45.74 -26.94,-88.16 -48.48,-127.24 -21.57,-39.14 -46.98,-74.02 -76.2,-104.62 -29.21,-30.59 -62.26,-56.96 -99.15,-79.09 -36.84,-22.1 -75.87,-38.7 -117.08,-49.77 -41.2,-11.07 -84.62,-16.6 -130.27,-16.6 -89.89,0 -171.72,22.13 -245.46,66.37 -36.89,22.13 -69.94,48.49 -99.15,79.09 -29.24,30.61 -54.64,65.49 -76.21,104.62 -21.54,39.08 -37.7,81.5 -48.48,127.25 -10.81,45.89 -16.22,95.19 -16.22,147.9 0,103.95 21.57,195.37 64.71,274.24 21.55,39.4 46.95,74.51 76.21,105.3 29.21,30.76 62.27,57.2 99.15,79.33 36.84,22.1 75.72,38.7 116.6,49.76 40.89,11.07 83.85,16.61 128.85,16.61z"/>
    <path class="fil1" d="M1227.21 10666.79l0.5 1.13c9.04,20.49 19.5,37.94 31.38,52.34 11.67,14.15 24.79,25.46 39.34,33.9 14.9,8.64 29.51,15.13 43.82,19.45 14,4.23 27.67,6.34 41,6.34l27.07 0 0 42.79 -449.46 0 0 -42.79 28.97 0c10.19,0 19.82,-2.2 28.87,-6.59 9.31,-4.52 18.19,-11.43 26.63,-20.7 6.91,-7.6 11.12,-16.65 12.62,-27.12 1.59,-11.09 0.24,-23.92 -4.03,-38.47l-122.08 -323.95 -493.8 0 -126.75 323.67c-2.5,9.19 -3.81,17.65 -3.89,25.38 -0.08,7.55 1.01,14.51 3.28,20.85 2.75,7.68 6.34,14.43 10.76,20.19 4.37,5.7 9.61,10.54 15.7,14.51 6.38,4.16 12.76,7.26 19.09,9.28 6.14,1.96 12.43,2.94 18.87,2.94l28.97 0 0 42.79 -404.06 0 0 -42.79 28.96 0c13.42,0 27.02,-2.1 40.76,-6.3 13.98,-4.27 28.33,-10.75 43.02,-19.45 12.77,-7.56 24.6,-17.46 35.49,-29.69 11.03,-12.39 21.07,-27.15 30.11,-44.23l433.59 -1029.78 0.05 -0.18 10.4 -23.64c6.97,-15.85 15.14,-35.01 24.5,-57.46 4.84,-11.62 9.2,-22.67 13.1,-33.16 3.97,-10.71 7.7,-21.42 11.16,-32.11 3.28,-10.15 5.77,-19.09 7.48,-26.83 1.54,-7.02 2.31,-12.63 2.31,-16.82l0 -11.94 36.89 0 509.4 1218.43zm-325.76 -384.3l-211.79 -562.01 -220.07 562.01 431.85 0zm453.88 -456.55l-0.67 0 -3.14 -7.14c-9.09,-20.6 -19.17,-38.16 -30.24,-52.66 -10.87,-14.26 -22.67,-25.57 -35.37,-33.94 -13.04,-8.59 -25.71,-15.02 -38.01,-19.26 -11.88,-4.1 -23.52,-6.16 -34.91,-6.16l-27.07 0 0 -42.79 411.62 0 0 42.79 -27.07 0c-8.74,0 -17.03,2.12 -24.86,6.35 -8.19,4.43 -16.07,11.26 -23.6,20.47 -6.35,7.76 -10.18,17.07 -11.47,27.9 -1.36,11.47 0.02,24.71 4.16,39.68l328.94 801.5 339.88 -804.42c4.09,-14.21 5.43,-26.82 4.06,-37.79 -1.3,-10.34 -5.13,-19.25 -11.47,-26.74 -7.81,-9.2 -16.05,-16.04 -24.73,-20.52 -8.34,-4.3 -17.24,-6.45 -26.7,-6.45l-25.18 0 0 -42.79 383.25 0 0 42.79 -27.07 0c-12.01,0 -24.15,2.07 -36.41,6.21 -12.6,4.25 -25.4,10.65 -38.39,19.21 -10.9,7.18 -21.25,16.55 -31.06,28.1 -9.98,11.75 -19.33,25.7 -28.04,41.86l-394.34 845.24 -10.4 22.7c-2.94,6.41 -6.69,14.79 -11.25,25.15 -4.44,10.07 -8.84,20.18 -13.19,30.36 -4.63,10.79 -9.07,21.63 -13.33,32.51 -4.21,10.77 -8.19,21.45 -11.93,32.04 -3.71,10.52 -6.61,19.81 -8.7,27.87 -2.05,7.91 -3.36,14.72 -3.93,20.41l-1.08 10.78 -35.47 0 -462.82 -1023.28zm2051.3 834.84l0.66 0 3.15 7.14c9.09,20.6 19.17,38.16 30.24,52.66 10.88,14.26 22.67,25.57 35.36,33.94 13.04,8.59 25.72,15.02 38.01,19.26 11.89,4.1 23.53,6.16 34.91,6.16l27.07 0 0 42.79 -411.63 0 0.01 -42.79 27.07 0c8.74,0 17.13,-2.14 25.14,-6.4l0.02 0.03c8.4,-4.47 16.53,-11.35 24.38,-20.6 6.35,-7.49 10.18,-16.41 11.48,-26.76 1.37,-10.99 0.02,-23.6 -4.08,-37.82l-102.44 -249.62 -462.05 0 -105.48 249.67c-4.08,14.21 -5.44,26.82 -4.06,37.8 1.3,10.34 5.13,19.25 11.47,26.74 7.81,9.2 16.05,16.04 24.73,20.52 8.34,4.3 17.24,6.45 26.7,6.45l27.07 0 0 42.79 -385.14 0 0 -42.79 27.07 0c12.01,0 24.16,-2.07 36.41,-6.21 12.61,-4.25 25.41,-10.66 38.39,-19.21 10.89,-7.18 21.25,-16.55 31.06,-28.1 9.98,-11.74 19.33,-25.7 28.05,-41.86l394.34 -845.24 10.4 -22.7c2.92,-6.38 6.69,-14.8 11.26,-25.15 4.44,-10.08 8.84,-20.21 13.19,-30.36 4.63,-10.8 9.08,-21.65 13.34,-32.54 4.21,-10.75 8.19,-21.43 11.92,-32.02 3.71,-10.52 6.62,-19.81 8.7,-27.86 2.05,-7.91 3.36,-14.72 3.93,-20.41l1.08 -10.78 35.47 0 462.83 1023.28zm-293.75 -302.63l-194.58 -474.12 -200.32 474.12 394.9 0zm1617.66 -564.96c-0.59,-12.12 -3.23,-23.24 -7.87,-33.36 -4.69,-10.21 -11.54,-19.54 -20.52,-27.95 -8.97,-8.42 -18.86,-14.71 -29.66,-18.85 -10.83,-4.17 -22.82,-6.26 -35.95,-6.26l-44.09 0 0 -42.79 381.36 0 0 42.79 -44.09 0c-24.69,0 -46.29,8.42 -64.8,25.25 -9.19,8.36 -16.05,17.6 -20.56,27.72 -4.48,10.05 -6.73,21.21 -6.73,33.45l0 801.98c0,20.91 0.3,40.57 0.9,58.97 0.61,18.84 1.56,37.7 2.84,56.56 2.51,37.05 5.32,67.06 8.42,89.99l6.56 48.52 -35.36 0 -968.52 -917.83 1.35 750.2 0.28 0 0 11.94c0,12.24 2.24,23.39 6.72,33.45 4.51,10.12 11.37,19.36 20.56,27.72 9.34,8.48 19.37,14.82 30.08,19 10.7,4.17 22.28,6.26 34.72,6.26l44.09 0 0 42.79 -381.36 0 0 -42.79 44.09 0c13.13,0 25.11,-2.09 35.95,-6.26 10.78,-4.14 20.68,-10.44 29.66,-18.85 8.92,-8.36 15.58,-17.61 19.95,-27.72 4.36,-10.08 6.54,-21.28 6.54,-33.59l0 -809.54c0,-32.37 -0.7,-62.12 -2.08,-89.24 -1.39,-27.28 -3.51,-52.55 -6.33,-75.81l-10.14 -83.32 37.08 0 966.92 911.07 0.01 -753.49zm1042.02 1055.25l-47.68 56.99c7.62,-1.18 15.66,-2.01 24.13,-2.49 11.73,-0.67 23.34,-0.24 34.83,1.28 11.43,1.51 22.73,4.13 33.87,7.85 11.59,3.86 22.24,9.17 31.92,15.91 9.67,6.73 18.51,14.97 26.5,24.7 8.26,10.06 14.59,22.12 18.98,36.17 4.24,13.56 6.69,29.11 7.37,46.63l0 0.05c0.68,21.22 -2.52,40.63 -9.59,58.23 -7.13,17.73 -18.12,33.51 -32.97,47.32 -14.43,13.42 -30.71,24.5 -48.8,33.22 -17.97,8.65 -37.73,14.97 -59.3,18.94 -21.46,3.97 -43.15,5.28 -65.03,3.97 -21.87,-1.32 -43.95,-5.26 -66.26,-11.82l-9.46 -2.78 3.95 -39.5 10.76 0c12.78,0 25.47,-0.9 38.04,-2.69 12.65,-1.8 25.37,-4.54 38.13,-8.19 24.48,-6.99 44.82,-18.59 61.03,-34.8 15.18,-15.19 22.23,-36.15 21.14,-62.88 -0.55,-11.63 -2.79,-21.56 -6.68,-29.76 -3.66,-7.7 -8.9,-13.96 -15.71,-18.75 -7.5,-5.28 -15.76,-9.31 -24.77,-12.08 -9.23,-2.84 -19.28,-4.41 -30.12,-4.69 -11.12,-0.29 -22.08,0.66 -32.86,2.84 -10.82,2.19 -21.51,5.63 -32.04,10.32l-10.36 4.6 -17.86 -35.71 78.92 -103.58c-51.53,-2.8 -100.14,-9.6 -145.82,-20.39 -52.72,-12.44 -101.65,-30.19 -146.8,-53.22 -47.96,-24.46 -90.41,-54.11 -127.36,-88.96 -36.98,-34.89 -68.38,-74.9 -94.16,-120.02 -25.74,-45.04 -45.06,-94.49 -57.96,-148.34 -12.85,-53.69 -19.29,-111.51 -19.29,-173.45 0,-62.71 6.42,-121.01 19.24,-174.88 12.87,-54.06 32.21,-103.67 58.01,-148.81 25.78,-45.12 57.18,-85.13 94.16,-120.02 36.94,-34.84 79.4,-64.5 127.36,-88.96 95.65,-48.78 208.1,-73.18 337.35,-73.18 39.35,0 79.1,2.57 119.24,7.71 40.11,5.13 80.16,12.78 120.13,22.93 40.12,10.19 77.7,22.51 112.71,36.97 35.02,14.45 67.31,31.01 96.86,49.64l4.57 2.88c14.9,95.27 29.74,190.54 44.6,285.82l-40.29 0 -2.19 -9.19c-13.53,-56.58 -33.86,-105.11 -60.98,-145.56 -26.91,-40.13 -60.57,-72.36 -100.96,-96.65 -40.89,-24.6 -85.92,-43.07 -135.09,-55.39 -49.28,-12.36 -102.78,-18.54 -160.48,-18.54 -48.87,0 -94.33,5.31 -136.36,15.94 -41.92,10.59 -80.49,26.46 -115.71,47.59 -35.21,21.12 -66.46,46.72 -93.76,76.78 -27.32,30.09 -50.66,64.64 -70.01,103.65 -19.42,39.14 -33.98,82.09 -43.71,128.85 -9.75,46.86 -14.62,97.67 -14.62,152.44 0,53.49 4.87,103.36 14.62,149.6 9.72,46.11 24.29,88.76 43.71,127.9 19.34,39 42.76,73.55 70.24,103.64 27.41,30.02 58.89,55.59 94.42,76.73 35.65,21.2 74.51,37.26 116.56,48.16 42.23,10.94 87.74,16.73 136.51,17.35l0 -0.05c46.75,0 91.06,-3.78 132.91,-11.35 41.79,-7.55 81.43,-18.92 118.91,-34.1 74.2,-30.05 134.6,-76.94 181.18,-140.69 23.2,-31.75 41.39,-68.14 54.55,-109.14 13.24,-41.27 21.41,-87.26 24.5,-137.98l0.68 -11.24 41.15 0 -22.08 274.98 -1.67 2.57c-16.84,25.9 -36.25,50.01 -58.24,72.32 -21.96,22.28 -46.5,42.79 -73.6,61.5 -26.99,18.63 -55.78,35.12 -86.37,49.45 -30.51,14.29 -62.77,26.41 -96.77,36.36 -29.41,8.6 -59.61,15.35 -90.56,20.23 -29.19,4.6 -59,7.55 -89.4,8.82zm1685.57 -187.66l0.66 0 3.15 7.14c9.09,20.6 19.17,38.16 30.24,52.66 10.88,14.26 22.67,25.57 35.37,33.94 13.04,8.59 25.72,15.02 38.01,19.26 11.88,4.1 23.52,6.16 34.91,6.16l27.07 0 0 42.79 -411.62 0 0 -42.79 27.07 0c8.74,0 17.13,-2.14 25.14,-6.4l0.02 0.03c8.39,-4.47 16.53,-11.35 24.38,-20.6 6.35,-7.49 10.18,-16.41 11.48,-26.76 1.38,-10.99 0.02,-23.6 -4.08,-37.82l-102.45 -249.62 -462.05 0 -105.49 249.67c-4.08,14.21 -5.44,26.82 -4.06,37.8 1.3,10.34 5.13,19.25 11.47,26.74 7.81,9.2 16.06,16.04 24.73,20.52 8.34,4.3 17.24,6.45 26.7,6.45l27.07 0 0 42.79 -385.15 0 0 -42.79 27.07 0c12.01,0 24.15,-2.07 36.41,-6.21 12.6,-4.25 25.41,-10.66 38.39,-19.21 10.9,-7.18 21.25,-16.55 31.06,-28.1 9.98,-11.74 19.34,-25.7 28.05,-41.86l394.34 -845.24 10.4 -22.7c2.92,-6.38 6.69,-14.8 11.25,-25.15 4.44,-10.08 8.84,-20.21 13.19,-30.36 4.63,-10.8 9.08,-21.65 13.34,-32.54 4.21,-10.75 8.19,-21.43 11.92,-32.02 3.71,-10.52 6.61,-19.81 8.7,-27.86 2.04,-7.91 3.36,-14.72 3.93,-20.41l1.08 -10.78 35.46 0 462.83 1023.28zm-293.75 -302.63l-194.58 -474.12 -200.32 474.12 394.9 0zm666.26 -559.28c-0.59,-13.38 -3.34,-25.57 -8.21,-36.57 -4.86,-10.98 -11.91,-20.8 -21.13,-29.47 -18.49,-17.36 -41.31,-26.05 -68.45,-26.05l-34.64 0 0 -42.79 643.68 0c126.64,0 236.22,23.13 328.75,69.4 46.47,23.23 87.6,51.54 123.38,84.9 35.86,33.44 66.39,71.95 91.56,115.53 25.15,43.52 44.01,91.17 56.58,142.9 12.54,51.63 18.82,107.17 18.82,166.65 0,59.47 -6.27,114.94 -18.82,166.41 -12.58,51.59 -31.44,99 -56.58,142.19 -25.18,43.27 -55.71,81.63 -91.57,115.06 -35.8,33.38 -76.91,61.84 -123.33,85.37 -46.32,23.48 -96.94,41.08 -151.84,52.8 -54.78,11.7 -113.77,17.54 -176.96,17.54l-643.68 0 0 -42.79 36.53 0c13.62,0 25.99,-2.3 37.09,-6.87 11.07,-4.56 21.09,-11.47 30.04,-20.7 9.06,-9.35 15.99,-19.46 20.79,-30.31 4.71,-10.67 7.37,-22.08 7.98,-34.21l-0.01 -888.98zm146.81 -54.26l0 997.51 364.46 0c71.71,0 135.58,-11.13 191.62,-33.4 55.8,-22.17 104.07,-55.46 144.8,-99.86 40.79,-44.47 71.41,-97.03 91.82,-157.66 20.53,-60.96 30.79,-130.25 30.79,-207.83 0,-77.59 -10.26,-146.87 -30.79,-207.83 -20.41,-60.63 -51.02,-113.2 -91.82,-157.67 -40.73,-44.41 -89,-77.7 -144.8,-99.86 -56.04,-22.27 -119.92,-33.4 -191.62,-33.4l-364.46 0zm2143.86 916.18l0.66 0 3.15 7.14c9.09,20.6 19.17,38.16 30.24,52.66 10.88,14.26 22.67,25.57 35.37,33.94 13.04,8.59 25.71,15.02 38.01,19.26 11.88,4.1 23.52,6.16 34.9,6.16l27.07 0 0 42.79 -411.63 0 0.01 -42.79 27.07 0c8.74,0 17.13,-2.14 25.14,-6.4l0.02 0.03c8.4,-4.47 16.53,-11.35 24.38,-20.6 6.35,-7.49 10.18,-16.41 11.48,-26.76 1.37,-10.99 0.02,-23.6 -4.08,-37.82l-102.44 -249.62 -462.05 0 -105.48 249.67c-4.08,14.21 -5.44,26.82 -4.06,37.8 1.3,10.34 5.13,19.25 11.47,26.74 7.81,9.2 16.05,16.04 24.73,20.52 8.34,4.3 17.24,6.45 26.7,6.45l27.07 0 0 42.79 -385.14 0 0 -42.79 27.07 0c12.01,0 24.16,-2.07 36.42,-6.21 12.6,-4.25 25.4,-10.66 38.39,-19.21 10.89,-7.18 21.25,-16.55 31.06,-28.1 9.98,-11.74 19.34,-25.7 28.05,-41.86l394.34 -845.24 10.4 -22.7c2.92,-6.38 6.69,-14.8 11.25,-25.15 4.44,-10.08 8.84,-20.21 13.19,-30.36 4.63,-10.8 9.08,-21.65 13.34,-32.54 4.21,-10.75 8.19,-21.43 11.92,-32.02 3.71,-10.52 6.62,-19.81 8.71,-27.86 2.04,-7.91 3.36,-14.72 3.93,-20.41l1.08 -10.78 35.47 0 462.83 1023.28zm-293.75 -302.63l-194.58 -474.12 -200.32 474.12 394.9 0z"/>
   </g>
  </g>
 </g>
</svg>
